<svg width="440" height="492" viewBox="0 0 440 492" fill="none" xmlns="http://www.w3.org/2000/svg">
<g clip-path="url(#clip0_166_1184)">
<path d="M0 0H1320V492H0V0Z" fill="#FF3135"/>
<path d="M256.417 491.5C256.417 486.838 255.501 482.222 253.721 477.915C251.941 473.608 249.332 469.694 246.043 466.398C242.754 463.101 238.849 460.486 234.552 458.702C230.255 456.918 225.649 456 220.998 456C216.346 456 211.74 456.918 207.443 458.702C203.146 460.486 199.241 463.101 195.952 466.398C192.663 469.694 190.054 473.608 188.274 477.915C186.494 482.222 185.578 486.838 185.578 491.5L220.998 491.5H256.417Z" fill="#111111"/>
<path d="M347.211 135.484C369.055 137.672 389.252 146.852 406.266 161.169C411.007 165.153 415.502 169.41 419.711 174L502.857 174C502.118 172.014 501.329 170.016 500.531 168.007C489.363 139.991 473.226 115.4 453.512 95.8862C424.423 67.0855 387.517 49.3437 347.211 48L347.211 135.484Z" fill="#111111"/>
<path d="M347.211 265.481C369.055 267.669 389.252 276.85 406.266 291.168C411.007 295.152 415.502 299.41 419.711 304L502.857 304C502.118 302.014 501.329 300.016 500.531 298.006C489.363 269.988 473.226 245.394 453.512 225.879C424.423 197.087 387.507 179.332 347.211 178L347.211 265.492V265.481Z" fill="#111111"/>
</g>
<defs>
<clipPath id="clip0_166_1184">
<rect width="440" height="492" fill="white"/>
</clipPath>
</defs>
</svg>
