<svg width="440" height="492" viewBox="0 0 440 492" fill="none" xmlns="http://www.w3.org/2000/svg">
<g clip-path="url(#clip0_166_1176)">
<path d="M-880 0H440V492H-880V0Z" fill="#FF3135"/>
<path d="M176.449 269H179V386.316C150.879 387.726 124.14 395.851 99.7945 409.45C73.7767 423.986 50.4889 444.8 31.2063 470.323C35.6536 481.776 39.4519 493.686 42.5286 506H-46.8356C-56.6084 488.839 -68.7585 473.879 -82.6485 461.836C-103.201 444.043 -127.607 432.632 -154 429.903L-154 321.143C-105.321 322.81 -60.7199 344.875 -25.5896 380.663C10.3855 340.506 52.9335 309.233 99.7945 289.689C124.279 279.466 149.945 272.431 176.449 269Z" fill="#111111"/>
<path d="M360 -58C344.898 -58 329.944 -54.9737 315.991 -49.0939C302.039 -43.2141 289.361 -34.596 278.683 -23.7315C268.004 -12.8671 259.533 0.0309312 253.754 14.226C247.975 28.4211 245 43.6353 245 59C245 74.3647 247.975 89.5789 253.754 103.774C259.533 117.969 268.004 130.867 278.683 141.731C289.361 152.596 302.039 161.214 315.991 167.094C329.944 172.974 344.898 176 360 176L360 59L360 -58Z" fill="#111111"/>
<path d="M440 -58C424.898 -58 409.944 -54.9737 395.991 -49.0939C382.039 -43.2141 369.361 -34.596 358.683 -23.7315C348.004 -12.867 339.533 0.0309371 333.754 14.226C327.975 28.4211 325 43.6353 325 59C325 74.3647 327.975 89.5789 333.754 103.774C339.533 117.969 348.004 130.867 358.683 141.731C369.361 152.596 382.039 161.214 395.991 167.094C409.944 172.974 424.898 176 440 176L440 59L440 -58Z" fill="#111111"/>
</g>
<defs>
<clipPath id="clip0_166_1176">
<rect width="440" height="492" fill="white"/>
</clipPath>
</defs>
</svg>
