<svg width="440" height="492" viewBox="0 0 440 492" fill="none" xmlns="http://www.w3.org/2000/svg">
<g clip-path="url(#clip0_166_1192)">
<path d="M-441 0H879V492H-441V0Z" fill="#FF3135"/>
<path d="M-91.9922 135.484C-70.341 137.672 -50.3215 146.852 -33.4578 161.169C-28.7583 165.153 -24.303 169.41 -20.131 174L62.2822 174C61.5494 172.014 60.7677 170.016 59.9763 168.007C48.9065 139.991 32.9124 115.4 13.3716 95.8862C-15.4608 67.0855 -52.0411 49.3437 -91.9922 48L-91.9922 135.484Z" fill="#111111"/>
<path d="M-91.9922 265.481C-70.341 267.669 -50.3215 276.85 -33.4578 291.168C-28.7583 295.152 -24.303 299.41 -20.131 304L62.2822 304C61.5494 302.014 60.7677 300.016 59.9763 298.006C48.9065 269.988 32.9124 245.394 13.3716 225.879C-15.4608 197.087 -52.0509 179.332 -91.9922 178L-91.9922 265.492V265.481Z" fill="#111111"/>
<path d="M614.552 269H617.074V386.316C589.264 387.726 562.821 395.851 538.745 409.45C513.015 423.986 489.985 444.8 470.915 470.323C475.313 481.776 479.07 493.686 482.112 506H393.737C384.072 488.839 372.056 473.879 358.32 461.836C337.995 444.043 313.858 432.632 287.758 429.903V321.143C335.898 322.81 380.006 344.875 414.748 380.663C450.325 340.506 492.402 309.233 538.745 289.689C562.959 279.466 588.34 272.431 614.552 269Z" fill="#111111"/>
</g>
<defs>
<clipPath id="clip0_166_1192">
<rect width="440" height="492" fill="white"/>
</clipPath>
</defs>
</svg>
