<svg xmlns="http://www.w3.org/2000/svg" fill="#fff" shape-rendering="geometricPrecision" viewBox="0 0 24 24"><path d="M15.684 0H8.316C1.592 0 0 1.592 0 8.316v7.368C0 22.408 1.592 24 8.316 24h7.368C22.408 24 24 22.408 24 15.684V8.316C24 1.592 22.408 0 15.684 0m4.665 16.558h-1.244c-.508 0-.678-.254-.847-.847-.678-2.49-1.744-4.236-2.542-4.236-.203 0-.39.102-.39.44v1.017c0 .322-.102.508-.508.508h-2.881c-.508 0-.678-.186-.678-.644V7.491c0-.508.17-.678.678-.678h1.244c.508 0 .678.17.678.678v3.576c0 .745.407 1.27.847 1.27.22 0 .39-.068.508-.237.627-.847 1.627-2.847 2.203-3.913.136-.271.322-.44.678-.44h1.44c.508 0 .61.254.508.678-.22 1.017-2.203 4.067-2.203 4.067-.17.305-.237.44 0 .678.17.237.61.61 1.017 1.017 1.27 1.27 2.203 2.203 2.542 2.88.254.508.034.745-.44.745z"/></svg>