<svg preserveAspectRatio="none" width="100%" height="100%" overflow="visible" style="display: block;" viewBox="0 0 264 468" fill="none" xmlns="http://www.w3.org/2000/svg">
<path id="Vector" d="M263.968 436.729C263.968 445.464 263.611 454.102 262.963 462.674C262.833 464.46 262.671 466.214 262.477 468H144.996C146.519 457.804 147.297 447.347 147.297 436.729C147.297 406.236 140.848 377.271 129.245 351.097C113.43 315.442 88.0216 284.983 56.326 262.998C38.6634 274.624 19.834 284.56 0 292.614V159.962C14.0329 149.83 26.7695 138.01 37.918 124.794C39.9922 122.358 42.0015 119.858 43.9784 117.292C69.1274 84.592 84.9104 44.2931 87.3086 0.389675C87.341 0.259784 87.341 0.129892 87.341 0H204.109C204.109 0 204.109 0.259784 204.109 0.389675C202.683 41.7602 193.576 81.1824 178.182 117.292C168.492 140.023 156.306 161.455 141.917 181.231C195.002 224.096 234.443 283.229 252.722 351.097C257.907 370.354 261.375 390.292 262.995 410.783C263.643 419.356 264 427.993 264 436.729H263.968Z" fill="var(--fill-0, #141414)"/>
</svg>
