<svg xmlns="http://www.w3.org/2000/svg" fill="none" overflow="visible" preserveAspectRatio="none" style="display:block" viewBox="0 0 264 468"><path fill="var(--fill-0, #141414)" d="M263.968 436.729c0 8.735-.357 17.373-1.005 25.945-.13 1.786-.292 3.54-.486 5.326H144.996a212 212 0 0 0 2.301-31.271c0-30.493-6.449-59.458-18.052-85.632-15.815-35.655-41.223-66.114-72.919-88.099A324.3 324.3 0 0 1 0 292.614V159.962a212 212 0 0 0 37.918-35.168 197 197 0 0 0 6.06-7.502C69.128 84.592 84.91 44.293 87.308.39c.033-.13.033-.26.033-.39h116.768v.39c-1.426 41.37-10.533 80.792-25.927 116.902a326 326 0 0 1-36.265 63.939c53.085 42.865 92.526 101.998 110.805 169.866 5.185 19.257 8.653 39.195 10.273 59.686A344 344 0 0 1 264 436.729z"/></svg>