<svg xmlns="http://www.w3.org/2000/svg" fill="none" overflow="visible" preserveAspectRatio="none" style="display:block" viewBox="0 0 101 129.871"><path fill="var(--fill-0, #111111)" d="M0 47.505c14.175 1.188 27.28 6.173 38.321 13.947 3.077 2.163 5.994 4.475 8.725 6.967H101c-.48-1.078-.991-2.163-1.51-3.254a115.3 115.3 0 0 0-30.51-39.162C50.102 10.363 26.154.73 0 0zm0 61.45c14.175 1.188 27.28 6.173 38.321 13.948 3.077 2.163 5.994 4.475 8.725 6.968H101a147 147 0 0 0-1.51-3.255A115.3 115.3 0 0 0 68.98 87.45C50.102 71.816 26.148 62.175 0 61.452v47.509z"/></svg>