<svg preserveAspectRatio="none" width="100%" height="100%" overflow="visible" style="display: block;" viewBox="0 0 101 129.871" fill="none" xmlns="http://www.w3.org/2000/svg">
<g id="Group 12140">
<path id="Vector" d="M0 47.5048C14.1745 48.6929 27.2809 53.6778 38.3211 61.4521C41.3978 63.6153 44.3146 65.9269 47.0459 68.4193H101C100.52 67.341 100.009 66.2562 99.4904 65.165C92.2432 49.9521 81.7723 36.5988 68.9794 26.0027C50.1034 10.3636 26.1551 0.729651 0 0V47.5048Z" fill="var(--fill-0, #111111)"/>
<path id="Vector_2" d="M0 108.955C14.1745 110.143 27.2809 115.128 38.3211 122.903C41.3978 125.066 44.3146 127.378 47.0459 129.871H101C100.52 128.793 100.009 127.708 99.4904 126.616C92.2432 111.402 81.7723 98.0475 68.9794 87.4504C50.1034 71.8163 26.1487 62.1749 0 61.4517V108.961V108.955Z" fill="var(--fill-0, #111111)"/>
</g>
</svg>
