<svg xmlns="http://www.w3.org/2000/svg" fill="none" overflow="visible" preserveAspectRatio="none" style="display:block" viewBox="0 0 40.961 20.199"><path fill="var(--fill-0, white)" d="M31.41 20.199q-1.663 0-2.833-1.17t-1.17-2.834a3.85 3.85 0 0 1 1.17-2.825q1.178-1.178 2.833-1.178 1.55 0 2.707 1.043V9.248h1.304V20.2h-1.304v-1.044A3.9 3.9 0 0 1 31.41 20.2m0-1.297a2.65 2.65 0 0 0 1.901-.79 2.8 2.8 0 0 0 .59-.865q.215-.492.216-1.052 0-.55-.217-1.043a2.7 2.7 0 0 0-.589-.858 2.6 2.6 0 0 0-.857-.581 2.6 2.6 0 0 0-1.044-.217q-.56 0-1.051.217-.485.209-.857.581-.366.366-.582.858-.21.492-.209 1.043 0 .56.209 1.052.216.492.582.864.372.366.857.582.492.21 1.051.209m-11.301 1.295V12.19h1.304v.574a2.96 2.96 0 0 1 1.782-.574q.612 0 1.156.23.544.232.954.634.418.403.671.94.255.529.284 1.133l-.008 5.07h-1.304v-5.07a1.7 1.7 0 0 0-.172-.634 1.83 1.83 0 0 0-.932-.872 1.7 1.7 0 0 0-.649-.127q-.35 0-.663.135a1.8 1.8 0 0 0-.544.35 1.7 1.7 0 0 0-.388.514q-.143.299-.164.634h-.023v5.07zm-6.427 0q-1.663 0-2.834-1.17-1.17-1.171-1.17-2.834a3.85 3.85 0 0 1 1.17-2.825q1.179-1.178 2.833-1.178a3.9 3.9 0 0 1 2.707 1.043v-1.043h1.305v8.007h-1.305v-1.044a3.9 3.9 0 0 1-2.707 1.044m0-1.297a2.65 2.65 0 0 0 1.9-.79q.374-.374.59-.866t.216-1.05q0-.552-.216-1.045a2.7 2.7 0 0 0-.59-.857 2.6 2.6 0 0 0-.857-.582 2.6 2.6 0 0 0-1.043-.216q-.56 0-1.052.216-.485.21-.857.582-.366.366-.582.857-.209.493-.209 1.044 0 .559.21 1.052.215.492.58.864.374.366.858.582.492.209 1.051.209m-8.863 1.298q-1.565 0-2.699-1.044V20.2H.813V9.247h1.305v3.989q1.133-1.044 2.7-1.044.819 0 1.542.32.73.313 1.275.865.552.545.873 1.275.32.723.32 1.543 0 .828-.32 1.559a4 4 0 0 1-.865 1.267 4.1 4.1 0 0 1-1.275.865 3.9 3.9 0 0 1-1.55.313m0-1.297a2.65 2.65 0 0 0 1.901-.79 2.8 2.8 0 0 0 .59-.865q.215-.492.215-1.052 0-.55-.216-1.043a2.7 2.7 0 0 0-.589-.858 2.6 2.6 0 0 0-.857-.581 2.6 2.6 0 0 0-1.044-.217q-.56 0-1.051.217-.485.209-.858.581-.365.366-.581.858-.21.492-.209 1.043 0 .56.209 1.052.216.492.581.864.374.366.858.582.492.21 1.051.209M40.014 1.767a1.7 1.7 0 0 0-1.185-.462q-.35 0-.664.134a1.8 1.8 0 0 0-.544.35 1.7 1.7 0 0 0-.388.515q-.141.298-.164.634l-.022 5.07h-1.305V0h1.305v.574A2.96 2.96 0 0 1 38.829 0q1.237 0 2.117.857.008.008.015.008zm-10.117 6.24q-1.663 0-2.834-1.17-1.17-1.17-1.17-2.833a3.85 3.85 0 0 1 1.17-2.826Q28.242 0 29.897 0q.819 0 1.543.32.73.315 1.275.865.55.545.872 1.275a3.77 3.77 0 0 1 .26 2.2h-6.575q.112.44.35.812.246.373.59.649.35.276.775.432a2.65 2.65 0 0 0 1.64.053 2.74 2.74 0 0 0 1.215-.731q.255-.261.425-.567h1.424a4 4 0 0 1-.574 1.081q-.372.493-.872.858a4 4 0 0 1-2.348.76m-2.625-4.652h5.249a2.6 2.6 0 0 0-.365-.805 2.7 2.7 0 0 0-.597-.656 2.7 2.7 0 0 0-.768-.433 2.6 2.6 0 0 0-.895-.156 2.6 2.6 0 0 0-.902.156 2.8 2.8 0 0 0-.775.433 2.6 2.6 0 0 0-.59.648q-.244.373-.357.813m-6.755 4.652L18.138 0h1.357l1.954 6.576L23.409 0h1.357l-2.378 8.007zm-7.499 0q-1.663 0-2.834-1.17-1.17-1.17-1.17-2.833a3.85 3.85 0 0 1 1.17-2.826Q11.362 0 13.018 0q.819 0 1.543.32.73.315 1.275.865.552.545.872 1.275.32.723.32 1.544 0 .826-.32 1.558a4 4 0 0 1-.865 1.267 4.1 4.1 0 0 1-1.275.865 3.9 3.9 0 0 1-1.55.313m0-1.297a2.65 2.65 0 0 0 1.9-.79q.374-.373.59-.865.216-.493.216-1.051 0-.552-.216-1.044a2.7 2.7 0 0 0-.59-.858 2.6 2.6 0 0 0-.857-.581 2.6 2.6 0 0 0-1.043-.216q-.56 0-1.052.216-.485.21-.857.581-.365.366-.582.858-.208.492-.208 1.044 0 .559.208 1.05.217.493.582.866.372.365.857.581.492.21 1.052.209M4.004 8.007q-1.663 0-2.833-1.17T0 4.004a3.85 3.85 0 0 1 1.17-2.826Q2.349 0 4.005 0q.656 0 1.252.209a4 4 0 0 1 1.096.559q.5.358.873.857.373.492.574 1.074H6.375a2.6 2.6 0 0 0-.425-.552 2.65 2.65 0 0 0-1.216-.738 2.6 2.6 0 0 0-.73-.104q-.56 0-1.052.216-.484.21-.857.581-.365.366-.582.858-.208.492-.208 1.044 0 .559.209 1.05.216.493.581.866.373.365.857.581.492.21 1.052.209.38 0 .73-.104a2.74 2.74 0 0 0 1.216-.731q.253-.261.425-.567h1.424a4 4 0 0 1-.574 1.081q-.373.493-.873.858a4 4 0 0 1-2.348.76"/></svg>