<svg xmlns="http://www.w3.org/2000/svg" fill="none" overflow="visible" preserveAspectRatio="none" style="display:block" viewBox="0 0 86.504 13.884"><path fill="var(--fill-0, white)" fill-rule="evenodd" d="M1.256 8.677h1.257c.694 0 1.256.583 1.256 1.302v2.603c0 .719-.562 1.302-1.256 1.302H1.256C.563 13.884 0 13.3 0 12.582V9.98c0-.719.563-1.302 1.256-1.302M7.12 6.074h1.256c.694 0 1.257.583 1.257 1.302v5.206c0 .719-.563 1.302-1.257 1.302H7.12c-.694 0-1.257-.583-1.257-1.302V7.376c0-.719.563-1.302 1.257-1.302m5.863-3.037h1.257c.694 0 1.256.583 1.256 1.302v8.243c0 .719-.562 1.302-1.256 1.302h-1.257c-.694 0-1.256-.583-1.256-1.302V4.34c0-.719.562-1.302 1.256-1.302M18.846 0h1.257c.694 0 1.256.583 1.256 1.302v11.28c0 .719-.562 1.302-1.256 1.302h-1.257c-.693 0-1.256-.583-1.256-1.302V1.302C17.59.583 18.153 0 18.846 0m21.737 2.883c2.79 0 5.472 1.078 7.493 3.012a.385.385 0 0 0 .545-.005l1.456-1.477a.41.41 0 0 0-.004-.577 13.66 13.66 0 0 0-18.98 0 .41.41 0 0 0-.005.577l1.456 1.477c.15.152.393.154.545.005a10.84 10.84 0 0 1 7.494-3.012m0 4.806c1.532 0 3.01.573 4.146 1.608a.39.39 0 0 0 .545-.008l1.454-1.477a.41.41 0 0 0-.006-.58 8.973 8.973 0 0 0-12.275 0 .41.41 0 0 0-.006.58l1.453 1.477a.39.39 0 0 0 .546.008 6.16 6.16 0 0 1 4.143-1.608m2.793 3.526a.4.4 0 0 0-.011-.579 4.29 4.29 0 0 0-5.563 0 .4.4 0 0 0-.012.579l2.514 2.552a.39.39 0 0 0 .558 0z" clip-rule="evenodd"/><path fill="var(--fill-0, #ababab)" d="M81.11 1.068a2.67 2.67 0 0 1 2.67 2.67v6.408a2.67 2.67 0 0 1-2.67 2.67H62.477a2.67 2.67 0 0 1-2.67-2.67V3.738a2.67 2.67 0 0 1 2.67-2.67zM63.032 2.186c-1.18 0-2.135.956-2.135 2.136V9.56c0 1.18.956 2.136 2.135 2.136h17.524c1.18 0 2.136-.956 2.136-2.136V4.322c0-1.18-.957-2.136-2.136-2.136zm21.838 2.8c.94.249 1.634 1.123 1.634 2.165a2.226 2.226 0 0 1-1.635 2.164z"/><rect width="19.616" height="7.272" x="61.986" y="3.307" fill="var(--fill-0, white)" rx="1.068"/></svg>