<svg xmlns="http://www.w3.org/2000/svg" fill="none" overflow="visible" preserveAspectRatio="none" style="display:block" viewBox="0 0 90.39 23.941"><path fill="var(--fill-0, #ebebeb)" d="M21.86 17.899a16.67 16.67 0 0 0-5.824-8.675 16.6 16.6 0 0 0 2.985-5.666A16.4 16.4 0 0 0 19.661 0L0 .02l.003 23.773h22.41q.057-.689.058-1.394c0-1.56-.214-3.069-.612-4.5zm-15.991 0V6.288h4.793q-.06.063-.125.122a10.5 10.5 0 0 1-1.92 1.485v6.583c.948-.331 1.858-.75 2.718-1.241a10.67 10.67 0 0 1 4.19 4.66zM90.39 20.75q-.014.7-.082 1.48c-.05.568-.12 1.103-.2 1.601h-5.925a14 14 0 0 0 .228-1.472s.096-.857.096-1.61c0-6.318-3.503-12.07-8.799-14.43v17.512h-5.856V0h5.495c7.777 1.667 12.157 9.068 13.586 12.79.166.431.656 2.153 1.06 4.273.154.811.341 1.79.386 3.046.01.268.011.49.01.641zM43.52.002a10 10 0 0 0-1.136 1.493c-.184.297-.46.746-.708 1.384-.256.658-.35 1.173-.439 1.664a10.8 10.8 0 0 0-.16 2.632c.015.233.036.423.052.552h-4.292c.074-.656.155-1.26.241-1.932h-5.347v18h-5.903V2.376h.002V0h13.22zM52.624 0c.386 4.153 3.145 7.618 6.906 9.025V.018h5.876v17.306l.041-.02v5.52l-.374.132a18 18 0 0 1-1.913.555 17 17 0 0 1-3.953.43c-.065 0-.144 0-.225-.005a17 17 0 0 1-5.21-.939h-.002l-.002-.002q-.193-.067-.387-.139a19 19 0 0 1-2.577-1.22l-.043-.025q-.008-.004-.012-.008-.002 0-.003-.002l-.131-.077a18 18 0 0 1-3.016-2.273l-.501-.467.558-.398q.803-.57 1.643-1.232l.188-.15a38 38 0 0 0 1.241-1.034l.362-.315.366.31a12.6 12.6 0 0 0 3.135 1.956l.12.05q.195.082.399.16h.005l.03.011q.214.08.442.155l.096.031.089.028.009.002.008.003.09.029q.09.028.181.052l.093.026h.003l.003.002q.35.098.702.172l.1.02h.002a12 12 0 0 0 2.569.24v-3.697C52.469 13.58 47.127 7.452 46.682 0z"/></svg>