<svg xmlns="http://www.w3.org/2000/svg" fill="none" overflow="visible" preserveAspectRatio="none" style="display:block" viewBox="0 0 67.494 86.421"><path fill="var(--fill-0, white)" d="M21.372 0c1.39 14.99 11.31 27.498 24.838 32.578V.066h21.134v62.47l.15-.074v19.93l-1.346.474a64 64 0 0 1-3.1 1.005 61 61 0 0 1-12.533 2.35 59 59 0 0 1-5.464.198c-.234 0-.52 0-.812-.015a60.8 60.8 0 0 1-15.553-2.378 19 19 0 0 1-.849-.254 49 49 0 0 1-2.337-.756h-.007l-.007-.007c-.461-.165-.922-.33-1.39-.503-2.476-.921-4.845-2.055-6.582-2.947a68 68 0 0 1-2.685-1.457l-.157-.092-.044-.026q-.006 0-.01-.007l-.473-.279C9.29 74.795 5.581 71.628 3.3 69.491l-1.803-1.685 2.007-1.435a147 147 0 0 0 5.91-4.448l.677-.54a139 139 0 0 0 4.465-3.736l1.302-1.134 1.316 1.115c3.109 2.64 6.839 5.139 11.275 7.062l.431.184c.469.198.944.385 1.434.572h.018l.11.044c.512.195 1.039.378 1.587.558.132.044.242.077.348.114l.318.1.033.007.029.01.322.103q.324.1.654.191l.333.092h.011l.011.007q1.257.354 2.523.62l.362.074h.008c2.417.492 4.886.785 7.383.855q.922.022 1.855.011V54.887C20.816 49.025 1.602 26.9 0 0z"/></svg>