<svg xmlns="http://www.w3.org/2000/svg" width="440" height="847" fill="none"><path fill="url(#a)" fill-opacity=".4" d="M0 0h440v847H0z"/><path fill="#fff" d="M101.52 53.477V36.262h6.304q1.98 0 3.399 1.629 1.418 1.629 1.418 3.187 0 .797-.129 1.371a3.7 3.7 0 0 1-.375.996q-.235.434-.586.774a10 10 0 0 1-.762.656q.422.34.762.68.35.327.586.761.246.423.375.985t.129 1.36q0 1.593-1.418 3.198-1.407 1.618-3.399 1.618zm2.05-7.582v5.542h4.254q.563 0 1.067-.21.504-.223.879-.598a2.8 2.8 0 0 0 .597-.89q.223-.505.223-1.079a2.6 2.6 0 0 0-.223-1.066 2.9 2.9 0 0 0-.597-.88 2.9 2.9 0 0 0-.879-.597 2.6 2.6 0 0 0-1.067-.222zm4.254-7.583h-4.254v5.532h4.254q.574 0 1.078-.211a2.9 2.9 0 0 0 .879-.598q.376-.375.586-.879.223-.504.223-1.078a2.6 2.6 0 0 0-.223-1.066 2.9 2.9 0 0 0-.597-.88 2.9 2.9 0 0 0-.879-.597 2.6 2.6 0 0 0-1.067-.222m11.391 15.153h-3.328V40.89h2.051v5.297h1.277q.738 0 1.394.292.668.282 1.161.786.503.492.785 1.16.293.656.293 1.406 0 .762-.293 1.43-.293.656-.785 1.148a3.6 3.6 0 0 1-1.161.774 3.5 3.5 0 0 1-1.394.28m4.687.012V40.89h2.051v12.586zm-4.687-5.32h-1.277v3.34h1.277q.339 0 .633-.13.305-.129.527-.351.234-.235.363-.54.141-.304.141-.644t-.141-.645a1.6 1.6 0 0 0-.363-.527 1.55 1.55 0 0 0-.527-.363 1.45 1.45 0 0 0-.633-.14m18.387-11.895q0 .785-.305 1.476a3.8 3.8 0 0 1-.809 1.196 3.9 3.9 0 0 1-1.207.82 3.7 3.7 0 0 1-1.465.293q-.539 0-1.019.2-.48.186-.856.526a2.9 2.9 0 0 0-.609.786q-.234.457-.281.972 1.78-1.64 4.242-1.64 1.289 0 2.426.504a6.3 6.3 0 0 1 2.004 1.359 6.4 6.4 0 0 1 1.371 2.004q.504 1.136.504 2.426 0 1.3-.504 2.449a6.3 6.3 0 0 1-1.36 1.992 6.5 6.5 0 0 1-2.004 1.36 6.1 6.1 0 0 1-2.437.492q-2.614 0-4.453-1.84T129 47.184v-4.559q.035-.949.422-1.793a5 5 0 0 1 1.043-1.465 4.9 4.9 0 0 1 1.512-.996 4.7 4.7 0 0 1 1.839-.363q.352 0 .668-.13.317-.14.551-.374.246-.246.375-.563a1.65 1.65 0 0 0 .141-.68zm-2.309 15.176q.867 0 1.641-.329a4.38 4.38 0 0 0 2.273-2.273q.34-.774.34-1.652 0-.867-.34-1.641a4.3 4.3 0 0 0-.926-1.348 4.1 4.1 0 0 0-1.347-.914 4 4 0 0 0-1.641-.34q-.88 0-1.652.34a4.3 4.3 0 0 0-1.348.914 4.4 4.4 0 0 0-.914 1.348 4.2 4.2 0 0 0-.328 1.64q0 .88.328 1.653.34.774.914 1.36.586.573 1.348.913a4.2 4.2 0 0 0 1.652.328m14.437 2.039q-2.613 0-4.453-1.84-1.839-1.84-1.839-4.453 0-2.602 1.839-4.442 1.852-1.851 4.453-1.851 1.29 0 2.426.504a6.2 6.2 0 0 1 2.004 1.359 6.4 6.4 0 0 1 1.371 2.004 5.9 5.9 0 0 1 .481 2.93 6 6 0 0 1-.071.527h-10.336q.177.691.551 1.277.387.585.926 1.02.55.433 1.219.68.68.245 1.429.245a4 4 0 0 0 1.149-.164 4.3 4.3 0 0 0 1.91-1.148 4.3 4.3 0 0 0 .668-.89h2.238a6.2 6.2 0 0 1-.902 1.699 6.6 6.6 0 0 1-1.371 1.347 6.3 6.3 0 0 1-1.723.88 6.1 6.1 0 0 1-1.969.316m-4.125-7.313h8.25a4 4 0 0 0-.574-1.266 4.2 4.2 0 0 0-.937-1.03 4.3 4.3 0 0 0-1.207-.68 4 4 0 0 0-1.407-.247q-.737 0-1.418.246-.668.247-1.218.68-.54.421-.926 1.02a4.2 4.2 0 0 0-.563 1.277m19.606 7.313q-2.462 0-4.242-1.641v6.246h-2.051V40.891h2.051v1.64q1.78-1.64 4.242-1.64 1.289 0 2.426.504a6.3 6.3 0 0 1 2.004 1.359 6.4 6.4 0 0 1 1.371 2.004q.504 1.136.504 2.426 0 1.3-.504 2.449a6.3 6.3 0 0 1-1.36 1.992 6.5 6.5 0 0 1-2.004 1.36 6.1 6.1 0 0 1-2.437.492m0-2.04q.867 0 1.641-.328a4.38 4.38 0 0 0 2.273-2.273q.34-.774.34-1.652 0-.867-.34-1.641a4.3 4.3 0 0 0-.926-1.348 4.1 4.1 0 0 0-1.347-.914 4 4 0 0 0-1.641-.34q-.88 0-1.652.34a4.3 4.3 0 0 0-1.348.914 4.4 4.4 0 0 0-.914 1.348 4.2 4.2 0 0 0-.328 1.64q0 .88.328 1.653.34.774.914 1.36.586.573 1.348.913a4.2 4.2 0 0 0 1.652.328m16.652-6.914-6.199 8.954h-2.051V40.879h2.051v8.988l6.199-8.965h2.051v12.493h-2.051zm13.688-3.644v2.05h-3.504v10.548h-2.145V42.93h-3.504v-2.051zm7.992 12.598q-2.614 0-4.453-1.84t-1.84-4.453q0-2.602 1.84-4.442 1.851-1.851 4.453-1.851 1.289 0 2.426.504a6.3 6.3 0 0 1 2.004 1.359 6.4 6.4 0 0 1 1.371 2.004 5.9 5.9 0 0 1 .48 2.93 6 6 0 0 1-.07.527h-10.336q.176.691.551 1.277.387.585.926 1.02.55.433 1.218.68.68.245 1.43.245.597 0 1.148-.164a4.3 4.3 0 0 0 1.911-1.148q.398-.41.668-.89h2.238a6.2 6.2 0 0 1-.903 1.699q-.585.772-1.371 1.347a6.3 6.3 0 0 1-1.722.88 6.1 6.1 0 0 1-1.969.316m-4.125-7.313h8.25a4 4 0 0 0-.574-1.266 4.2 4.2 0 0 0-.938-1.03 4.3 4.3 0 0 0-1.207-.68 4 4 0 0 0-1.406-.247q-.738 0-1.418.246a4.4 4.4 0 0 0-1.219.68 4.2 4.2 0 0 0-.926 1.02q-.386.585-.562 1.277m24.516 8.707v-1.465q-1.969-.292-3.434-1.77-1.84-1.839-1.84-4.452 0-2.602 1.84-4.442 1.476-1.476 3.434-1.77V39.73h2.05v1.254q.727.117 1.395.41a6.2 6.2 0 0 1 2.004 1.36 6.4 6.4 0 0 1 1.371 2.004q.504 1.136.504 2.426 0 1.3-.504 2.449a6.3 6.3 0 0 1-1.359 1.992 6.5 6.5 0 0 1-2.004 1.36 6 6 0 0 1-1.407.41v1.476zm-.633-11.59a4.3 4.3 0 0 0-1.348.914 4.4 4.4 0 0 0-.914 1.348 4.2 4.2 0 0 0-.328 1.64q0 .88.328 1.653.34.774.914 1.36.586.573 1.348.913.305.13.633.211v-8.25a3 3 0 0 0-.633.211m3.293 7.828a4.37 4.37 0 0 0 2.273-2.273q.34-.774.34-1.652 0-.867-.34-1.641a4.3 4.3 0 0 0-.926-1.348 4.1 4.1 0 0 0-1.347-.914 5 5 0 0 0-.61-.21v8.25q.306-.083.61-.212m15.574-6.586-6.199 8.954h-2.051V40.879h2.051v8.988l6.199-8.965h2.051v12.493h-2.051zm7.91 8.954h-2.051V40.89h2.051v5.015h4.91V40.89h2.051v12.586h-2.051v-5.52h-4.91zm16.301 0q-2.613 0-4.453-1.84t-1.84-4.453q0-2.602 1.84-4.442 1.851-1.851 4.453-1.851 2.438 0 4.254 1.64v-1.64h2.051v12.586h-2.051v-1.641q-1.817 1.64-4.254 1.64m0-2.04q.867 0 1.641-.328a4.38 4.38 0 0 0 2.273-2.273q.34-.774.34-1.652 0-.867-.34-1.641a4.3 4.3 0 0 0-.926-1.348 4.1 4.1 0 0 0-1.347-.914 4 4 0 0 0-1.641-.34q-.88 0-1.652.34a4.3 4.3 0 0 0-1.348.914 4.4 4.4 0 0 0-.914 1.348 4.2 4.2 0 0 0-.328 1.64q0 .88.328 1.653.34.774.914 1.36.586.573 1.348.913a4.2 4.2 0 0 0 1.652.328m9.129.083q.539 0 1.031-.2.492-.21.867-.55.375-.352.598-.82.234-.47.258-.997v-7.98h7.758v12.504h-2.051V43.082h-3.657v5.871a4.5 4.5 0 0 1-.433 1.793 5 5 0 0 1-1.031 1.465q-.645.633-1.512.996a4.6 4.6 0 0 1-1.816.363zm18.867 1.945h-4.559V40.89h2.051v5.297h2.508q.738 0 1.395.292.668.282 1.16.786.503.492.785 1.16.293.656.293 1.406 0 .762-.293 1.43-.293.656-.785 1.148a3.6 3.6 0 0 1-1.16.774 3.5 3.5 0 0 1-1.395.28m0-5.309h-2.508v3.34h2.508q.34 0 .633-.129.305-.129.527-.351.234-.235.363-.54.141-.304.141-.644t-.141-.645a1.6 1.6 0 0 0-.363-.527 1.55 1.55 0 0 0-.527-.363 1.44 1.44 0 0 0-.633-.14m7.687 5.32h-2.05V40.892h2.05v5.015h4.911v-5.015h2.05v12.586h-2.05v-5.52h-4.911zm13.184 0-3.738-12.585h2.133l3.07 10.312.141-.434 2.941-9.878h2.133l-3.738 12.586h-.024l-1.371 4.605h-2.133l1.371-4.605zm18.563 0a6.2 6.2 0 0 1-2.227-.41 6.7 6.7 0 0 1-1.91-1.148 6.5 6.5 0 0 1-1.406-1.711 6 6 0 0 1-.704-2.156h-1.359v5.426h-2.051V40.89h2.051v5.355h1.371q.153-1.136.715-2.11a6.5 6.5 0 0 1 1.418-1.699 6.5 6.5 0 0 1 1.898-1.136 6 6 0 0 1 2.204-.41q1.289 0 2.425.504a6.2 6.2 0 0 1 2.004 1.359 6.4 6.4 0 0 1 1.371 2.004q.504 1.136.504 2.426 0 1.3-.504 2.449a6.3 6.3 0 0 1-1.359 1.992 6.5 6.5 0 0 1-2.004 1.36 6.1 6.1 0 0 1-2.437.492m0-2.038q.867 0 1.64-.329a4.37 4.37 0 0 0 2.274-2.273 4.1 4.1 0 0 0 .339-1.652q0-.867-.339-1.641a4.3 4.3 0 0 0-.926-1.348 4.1 4.1 0 0 0-1.348-.914 4 4 0 0 0-1.64-.34q-.879 0-1.653.34a4.3 4.3 0 0 0-1.347.914 4.4 4.4 0 0 0-.914 1.348 4.2 4.2 0 0 0-.329 1.64q0 .88.329 1.653.34.774.914 1.36.585.573 1.347.913a4.2 4.2 0 0 0 1.653.328M151.91 83.477V70.89h2.051v5.496l4.84-5.496h2.73l-3.738 4.253 3.68 8.333h-2.239l-2.941-6.645-2.332 2.672v3.973zm18.375 0q-2.613 0-4.453-1.84t-1.84-4.453q0-2.602 1.84-4.442 1.851-1.851 4.453-1.851 1.29 0 2.426.503a6.2 6.2 0 0 1 2.004 1.36 6.4 6.4 0 0 1 1.371 2.004q.504 1.136.504 2.426 0 1.3-.504 2.449a6.3 6.3 0 0 1-1.359 1.992 6.5 6.5 0 0 1-2.004 1.36 6.1 6.1 0 0 1-2.438.492m0-2.04q.867 0 1.641-.328a4.37 4.37 0 0 0 2.273-2.273q.34-.774.34-1.652 0-.867-.34-1.641a4.3 4.3 0 0 0-.926-1.348 4.1 4.1 0 0 0-1.347-.914 4 4 0 0 0-1.641-.34q-.88 0-1.652.34a4.3 4.3 0 0 0-1.348.914 4.4 4.4 0 0 0-.914 1.348 4.2 4.2 0 0 0-.328 1.64q0 .879.328 1.653.34.774.914 1.36.586.574 1.348.913a4.2 4.2 0 0 0 1.652.329m11.356 2.004h-2.051v-12.54h2.051l4.23 7.395 4.207-7.43h2.051v12.54h-2.051v-8.438l-4.207 7.43-4.23-7.395zm16.336.036h-2.051V70.89h9.012v12.586h-2.051V72.93h-4.91zm16.3 0q-2.613 0-4.453-1.84t-1.84-4.453q0-2.602 1.84-4.442 1.852-1.851 4.453-1.851 1.29 0 2.426.503a6.2 6.2 0 0 1 2.004 1.36 6.4 6.4 0 0 1 1.371 2.004q.504 1.136.504 2.426 0 1.3-.504 2.449a6.3 6.3 0 0 1-1.359 1.992 6.5 6.5 0 0 1-2.004 1.36 6.1 6.1 0 0 1-2.438.492m0-2.04q.867 0 1.641-.328a4.37 4.37 0 0 0 2.273-2.273q.34-.774.34-1.652 0-.867-.34-1.641a4.3 4.3 0 0 0-.925-1.348 4.1 4.1 0 0 0-1.348-.914 4 4 0 0 0-1.641-.34q-.879 0-1.652.34a4.3 4.3 0 0 0-1.348.914 4.4 4.4 0 0 0-.914 1.348 4.2 4.2 0 0 0-.328 1.64 4.2 4.2 0 0 0 .328 1.653q.34.774.914 1.36.586.574 1.348.913a4.2 4.2 0 0 0 1.652.329m8.379-6.972q0-.75.282-1.406.28-.668.773-1.16a3.5 3.5 0 0 1 1.148-.786 3.5 3.5 0 0 1 1.43-.293q.738 0 1.395.293.668.282 1.16.785.503.493.785 1.16.293.657.293 1.407 0 1.535-1.16 2.672 1.16 1.16 1.16 2.672 0 .76-.293 1.43-.293.656-.785 1.148a3.6 3.6 0 0 1-1.16.773 3.5 3.5 0 0 1-1.395.281 3.65 3.65 0 0 1-1.43-.28 3.62 3.62 0 0 1-1.921-1.922 3.6 3.6 0 0 1-.282-1.43h1.957q0 .351.129.656t.352.539q.234.222.539.352.305.128.656.128.34 0 .633-.128.305-.14.527-.364.235-.234.363-.539.141-.305.141-.644 0-.34-.141-.645a1.5 1.5 0 0 0-.363-.527 1.55 1.55 0 0 0-.527-.364 1.44 1.44 0 0 0-.633-.14V76.14q.34 0 .645-.13a1.65 1.65 0 0 0 .89-.89q.129-.305.129-.656 0-.34-.141-.645a1.5 1.5 0 0 0-.363-.527 1.55 1.55 0 0 0-.527-.363 1.44 1.44 0 0 0-.633-.14 1.665 1.665 0 0 0-1.547 1.019 1.7 1.7 0 0 0-.129.656zm18.715.058-6.199 8.954h-2.051v-12.6h2.051v8.988l6.199-8.965h2.051v12.492h-2.051zm13.195 10.993v-2.04h-8.039V70.88h2.051v10.488h3.949V70.88h2.051v10.558h2.039v4.079zm13.336-10.993-6.199 8.954h-2.051v-12.6h2.051v8.988l6.199-8.965h2.051v12.492h-2.051zm15.516 8.954a6.2 6.2 0 0 1-2.227-.41 6.7 6.7 0 0 1-1.91-1.149 6.5 6.5 0 0 1-1.406-1.711 6 6 0 0 1-.703-2.156h-1.36v5.426h-2.05V70.89h2.05v5.355h1.372q.151-1.136.714-2.11a6.5 6.5 0 0 1 1.418-1.698 6.5 6.5 0 0 1 1.899-1.137 6 6 0 0 1 2.203-.41q1.289 0 2.426.503a6.3 6.3 0 0 1 2.004 1.36 6.4 6.4 0 0 1 1.371 2.004q.504 1.136.504 2.426 0 1.3-.504 2.449a6.3 6.3 0 0 1-1.36 1.992 6.5 6.5 0 0 1-2.004 1.36 6.1 6.1 0 0 1-2.437.492m0-2.04q.867 0 1.641-.328a4.38 4.38 0 0 0 2.273-2.273q.34-.774.34-1.652 0-.867-.34-1.641a4.3 4.3 0 0 0-.926-1.348 4.1 4.1 0 0 0-1.347-.914 4 4 0 0 0-1.641-.34q-.88 0-1.652.34a4.3 4.3 0 0 0-1.348.914 4.4 4.4 0 0 0-.914 1.348 4.2 4.2 0 0 0-.328 1.64q0 .879.328 1.653.34.774.914 1.36.586.574 1.348.913a4.2 4.2 0 0 0 1.652.329"/><rect width="411" height="95" x="13.5" y="164.918" fill="#fff" fill-opacity=".15" rx="24.5"/><rect width="411" height="95" x="13.5" y="164.918" stroke="url(#b)" rx="24.5"/><rect width="66" height="66" x="33" y="179.418" fill="#d9d9d9" rx="5"/><path fill="#fff" d="M111.052 205.418v-16.8h3.552v6.372h7.128v-6.372h3.552v16.8h-3.552v-7.176h-7.128v7.176zm17.98 0v-12.12h3.348v7.152l5.676-7.152h3.12v12.12h-3.36v-7.248l-5.688 7.248zm23.459 0-3.84-6.372 3.828-5.748h3.708l-3.78 5.568 4.248 6.552zm-7.896 0v-12.12h3.504v4.464h3.672v2.808h-3.672v4.848zm19.575.36q-1.956 0-3.468-.876a6.5 6.5 0 0 1-2.376-2.328 6.3 6.3 0 0 1-.852-3.216q0-1.284.492-2.436a6.3 6.3 0 0 1 1.392-2.052q.9-.9 2.124-1.416t2.688-.516q1.956 0 3.456.876a6.4 6.4 0 0 1 2.364 2.34q.864 1.452.864 3.204 0 1.272-.492 2.436a6.4 6.4 0 0 1-1.392 2.064 6.6 6.6 0 0 1-2.112 1.404q-1.224.516-2.688.516m0-3.036q.924 0 1.656-.408.732-.42 1.152-1.176.42-.768.42-1.8 0-1.044-.42-1.8a2.85 2.85 0 0 0-1.14-1.164q-.732-.42-1.668-.42t-1.68.42q-.732.408-1.152 1.164-.408.756-.408 1.8t.42 1.8 1.152 1.176q.732.408 1.668.408m9.089 2.676v-12.12h8.208v2.808h-4.704v9.312zm16.153.36q-1.956 0-3.468-.876a6.5 6.5 0 0 1-2.376-2.328 6.3 6.3 0 0 1-.852-3.216q0-1.284.492-2.436a6.3 6.3 0 0 1 1.392-2.052q.9-.9 2.124-1.416t2.688-.516q1.956 0 3.456.876a6.4 6.4 0 0 1 2.364 2.34q.864 1.452.864 3.204 0 1.272-.492 2.436a6.4 6.4 0 0 1-1.392 2.064 6.6 6.6 0 0 1-2.112 1.404q-1.224.516-2.688.516m0-3.036q.924 0 1.656-.408.732-.42 1.152-1.176.42-.768.42-1.8 0-1.044-.42-1.8a2.85 2.85 0 0 0-1.14-1.164q-.732-.42-1.668-.42t-1.68.42q-.732.408-1.152 1.164-.408.756-.408 1.8t.42 1.8 1.152 1.176q.732.408 1.668.408m14.737 2.676v-12.12h3.504v4.464h5.112v-4.464h3.504v12.12h-3.504v-4.848h-5.112v4.848zm21.203.36q-1.98 0-3.48-.804a5.85 5.85 0 0 1-2.34-2.244q-.84-1.44-.84-3.372 0-1.404.48-2.58a6.05 6.05 0 0 1 1.368-2.028 6.2 6.2 0 0 1 2.076-1.332q1.2-.48 2.628-.48 1.572 0 2.784.552a5.4 5.4 0 0 1 2.028 1.548q.804.984 1.116 2.316.324 1.332.06 2.892h-9.288q0 .84.432 1.464.444.624 1.236.984.804.348 1.872.348 1.056 0 2.016-.288a6.4 6.4 0 0 0 1.812-.876l1.164 2.4q-.576.444-1.44.792-.864.336-1.836.516a9.4 9.4 0 0 1-1.848.192m-3.204-7.944h5.724q-.036-1.068-.756-1.692-.708-.624-1.956-.624t-2.076.624q-.816.624-.936 1.692m23.851 7.584v-4.848h-3.372v-2.808h3.372v-4.464h3.504v4.464h3.336v2.808h-3.336v4.848zm-7.884 0 3.708-6.384-3.468-5.736h3.804l3.42 5.748-3.516 6.372zm15.228 0-3.432-6.372 3.54-5.748h3.684l-3.468 5.568 3.816 6.552zm9.573.36q-1.224 0-2.184-.468a3.65 3.65 0 0 1-1.512-1.332q-.552-.876-.552-2.088 0-1.032.516-1.836t1.56-1.32q1.056-.528 2.664-.708 1.62-.192 3.816.024l.036 2.232q-1.308-.216-2.316-.204-.996.012-1.68.204-.672.192-1.02.564-.348.36-.348.876 0 .708.528 1.092.528.372 1.428.372.78 0 1.404-.276t.996-.804.372-1.284v-2.904q0-.708-.3-1.236-.288-.54-.912-.828-.624-.3-1.632-.3-.936 0-1.872.288a5.4 5.4 0 0 0-1.692.852l-.924-2.448a8.5 8.5 0 0 1 2.472-1.08 10 10 0 0 1 2.556-.348q1.704 0 2.976.54t1.968 1.668q.708 1.116.708 2.844v7.548h-3.048v-1.332q-.6.816-1.644 1.26-1.044.432-2.364.432m10.16-.096-1.164-3.108q1.236-.312 1.8-.936t.708-1.692q.156-1.08.156-2.748v-3.9h10.404v12.12h-3.504v-9.312h-3.696v1.092q0 1.872-.216 3.312-.204 1.44-.72 2.484a4.6 4.6 0 0 1-1.428 1.692q-.912.66-2.34.996m23.204-.264-3.84-6.372 3.828-5.748h3.708l-3.78 5.568 4.248 6.552zm-7.896 0v-12.12h3.504v4.464h3.672v2.808h-3.672v4.848zm19.575.36q-1.956 0-3.468-.876a6.5 6.5 0 0 1-2.376-2.328 6.3 6.3 0 0 1-.852-3.216q0-1.284.492-2.436a6.3 6.3 0 0 1 1.392-2.052q.9-.9 2.124-1.416t2.688-.516q1.956 0 3.456.876a6.4 6.4 0 0 1 2.364 2.34q.864 1.452.864 3.204 0 1.272-.492 2.436a6.4 6.4 0 0 1-1.392 2.064 6.6 6.6 0 0 1-2.112 1.404q-1.224.516-2.688.516m0-3.036q.924 0 1.656-.408.732-.42 1.152-1.176.42-.768.42-1.8 0-1.044-.42-1.8a2.85 2.85 0 0 0-1.14-1.164q-.732-.42-1.668-.42t-1.68.42q-.732.408-1.152 1.164-.408.756-.408 1.8t.42 1.8 1.152 1.176q.732.408 1.668.408m-196.775 32.676v-16.8h10.56v2.376h-7.872v4.56h3.06q2.724 0 4.368 1.26 1.644 1.248 1.644 3.672 0 1.584-.72 2.688-.708 1.092-2.064 1.668-1.344.576-3.24.576zm2.688-2.112h2.904q1.632 0 2.508-.72.888-.72.888-2.064 0-1.308-.876-2.076t-2.412-.768h-3.012zm13.195 7.488q-.648 0-1.272-.144a4.4 4.4 0 0 1-1.224-.492l.6-2.256q.372.24.816.36t.792.12q.84 0 1.32-.396t.756-1.224l.396-1.152-4.68-12.072h2.892l3.288 9.216 3.204-9.216h2.796l-5.136 13.596q-.552 1.428-1.236 2.22-.684.804-1.512 1.116a4.9 4.9 0 0 1-1.8.324m11.753-5.376v-11.88h2.364l5.328 7.704-1.14.024 5.064-7.728h2.34v11.88h-2.4l.036-8.784.492.216-4.248 6.204h-1.704l-4.44-6.216.492-.216.036 8.796zm23.049.36q-1.92 0-3.372-.78a5.74 5.74 0 0 1-2.268-2.208q-.804-1.416-.804-3.288 0-1.368.468-2.52a5.96 5.96 0 0 1 3.312-3.336 6.6 6.6 0 0 1 2.508-.468q1.476 0 2.628.528a5.1 5.1 0 0 1 1.908 1.452 5.5 5.5 0 0 1 1.08 2.196q.324 1.248.108 2.712h-9.48q-.024 1.068.468 1.872.492.792 1.404 1.236.924.444 2.172.444 1.008 0 1.944-.3a5.6 5.6 0 0 0 1.716-.912l1.02 1.896q-.576.468-1.392.804a9.3 9.3 0 0 1-1.704.492q-.888.18-1.716.18m-3.756-7.656h6.732q-.036-1.344-.864-2.112-.816-.768-2.328-.768-1.464 0-2.436.768-.96.768-1.104 2.112m12.067 12.336v-16.92h2.376v1.668a5.4 5.4 0 0 1 1.812-1.464q1.104-.564 2.724-.564 1.74 0 3.084.828a5.65 5.65 0 0 1 2.112 2.244q.756 1.416.756 3.228 0 1.308-.432 2.46-.432 1.14-1.236 2.004a5.7 5.7 0 0 1-1.896 1.356q-1.092.48-2.424.48-1.392 0-2.448-.504a5.5 5.5 0 0 1-1.8-1.356v6.54zm6.432-7.02q1.104 0 1.956-.48a3.43 3.43 0 0 0 1.344-1.38q.492-.888.492-2.1t-.492-2.1q-.492-.9-1.356-1.38-.852-.48-1.944-.48-1.104 0-1.968.48-.852.48-1.344 1.38-.492.888-.492 2.1t.492 2.1a3.54 3.54 0 0 0 1.344 1.38q.864.48 1.968.48m204.995-34.019a8.2 8.2 0 0 0-4.303 1.202 7.7 7.7 0 0 0-2.304 2.145 7.7 7.7 0 0 0-2.304-2.145c-2.45-1.492-5.459-1.601-8.258-.294a7.57 7.57 0 0 0-3.05 2.557c-4.372 6.369 2.303 15.175 10.009 21.291 2.09 1.658 5.119 1.657 7.207 0 7.706-6.116 14.381-14.923 10.007-21.291a7.55 7.55 0 0 0-3.049-2.557c-1.299-.607-2.643-.909-3.955-.909zm-5.356 7.263c0-1.598.892-3.096 2.384-4.006 1.706-1.038 3.836-1.099 5.842-.162a5.1 5.1 0 0 1 2.051 1.716c3.452 5.026-2.965 12.874-9.51 18.069a3.27 3.27 0 0 1-4.036 0c-6.544-5.196-12.962-13.045-9.511-18.07a5.1 5.1 0 0 1 2.052-1.717c2.007-.936 4.137-.877 5.843.163 1.492.91 2.384 2.408 2.384 4.005 0 .67.559 1.213 1.25 1.213.692 0 1.251-.542 1.251-1.211"/><rect width="411" height="95" x="13.5" y="270.918" fill="#fff" fill-opacity=".15" rx="24.5"/><rect width="411" height="95" x="13.5" y="270.918" stroke="url(#c)" rx="24.5"/><rect width="66" height="66" x="33" y="285.418" fill="#d9d9d9" rx="5"/><path fill="#fff" d="M116.056 311.778q-2.004 0-3.648-.48a9.2 9.2 0 0 1-2.892-1.44l1.572-2.784q.852.744 2.064 1.176a7.5 7.5 0 0 0 2.52.432q1.08 0 1.86-.288.792-.3 1.224-.816.432-.528.432-1.224 0-1.068-.756-1.62-.744-.552-2.316-.552h-3.36v-2.748h3.084q.888 0 1.524-.24t.984-.696.348-1.092q0-.624-.348-1.044-.336-.432-1.008-.648-.672-.228-1.656-.228-1.14 0-2.22.384t-1.824 1.056l-1.62-2.604q1.116-.984 2.712-1.524 1.608-.54 3.432-.54 1.884 0 3.24.54 1.356.528 2.088 1.524t.732 2.388q0 .756-.324 1.464a4.5 4.5 0 0 1-.876 1.26 4.2 4.2 0 0 1-1.212.876q1.404.48 2.232 1.536.84 1.056.828 2.628 0 1.524-.852 2.724t-2.388 1.896q-1.536.684-3.576.684m15.301 0q-1.956 0-3.468-.876a6.5 6.5 0 0 1-2.376-2.328 6.3 6.3 0 0 1-.852-3.216q0-1.284.492-2.436a6.3 6.3 0 0 1 1.392-2.052q.9-.9 2.124-1.416t2.688-.516q1.956 0 3.456.876a6.4 6.4 0 0 1 2.364 2.34q.864 1.452.864 3.204 0 1.272-.492 2.436a6.4 6.4 0 0 1-1.392 2.064 6.6 6.6 0 0 1-2.112 1.404q-1.224.516-2.688.516m0-3.036q.924 0 1.656-.408.732-.42 1.152-1.176.42-.768.42-1.8 0-1.044-.42-1.8a2.85 2.85 0 0 0-1.14-1.164q-.732-.42-1.668-.42t-1.68.42q-.732.408-1.152 1.164-.408.756-.408 1.8t.42 1.8 1.152 1.176q.732.408 1.668.408m8.945 2.94-1.164-3.108q1.236-.312 1.8-.936t.708-1.692q.156-1.08.156-2.748v-3.9h10.404v12.12h-3.504v-9.312h-3.696v1.092q0 1.872-.216 3.312-.204 1.44-.72 2.484a4.6 4.6 0 0 1-1.428 1.692q-.912.66-2.34.996m21.008.096q-1.956 0-3.468-.876a6.5 6.5 0 0 1-2.376-2.328 6.3 6.3 0 0 1-.852-3.216q0-1.284.492-2.436a6.3 6.3 0 0 1 1.392-2.052q.9-.9 2.124-1.416t2.688-.516q1.956 0 3.456.876a6.4 6.4 0 0 1 2.364 2.34q.864 1.452.864 3.204 0 1.272-.492 2.436a6.4 6.4 0 0 1-1.392 2.064 6.6 6.6 0 0 1-2.112 1.404q-1.224.516-2.688.516m0-3.036q.924 0 1.656-.408.732-.42 1.152-1.176.42-.768.42-1.8 0-1.044-.42-1.8a2.85 2.85 0 0 0-1.14-1.164q-.732-.42-1.668-.42t-1.68.42q-.732.408-1.152 1.164-.408.756-.408 1.8t.42 1.8 1.152 1.176q.732.408 1.668.408m11.597 2.676v-9.312h-3.66v-2.808h10.812v2.808h-3.648v9.312zm9.399 0v-12.12h3.504v9.612h1.716q1.056 0 1.608-.444t.552-1.272-.516-1.284q-.504-.468-1.44-.468h-2.304v-2.484h2.58q2.46 0 3.864 1.068 1.416 1.068 1.416 3.168 0 1.32-.66 2.268-.66.936-1.872 1.452-1.2.504-2.832.504zm12.696 0v-12.12h3.504v12.12zm12.585.36q-1.98 0-3.48-.804a5.85 5.85 0 0 1-2.34-2.244q-.84-1.44-.84-3.372 0-1.404.48-2.58a6.05 6.05 0 0 1 1.368-2.028 6.2 6.2 0 0 1 2.076-1.332q1.2-.48 2.628-.48 1.572 0 2.784.552a5.4 5.4 0 0 1 2.028 1.548q.804.984 1.116 2.316.324 1.332.06 2.892h-9.288q0 .84.432 1.464.444.624 1.236.984.804.348 1.872.348 1.056 0 2.016-.288a6.4 6.4 0 0 0 1.812-.876l1.164 2.4q-.576.444-1.44.792-.864.336-1.836.516a9.4 9.4 0 0 1-1.848.192m-3.204-7.944h5.724q-.036-1.068-.756-1.692-.708-.624-1.956-.624t-2.076.624q-.816.624-.936 1.692m25.17 7.584-3.84-6.372 3.828-5.748h3.708l-3.78 5.568 4.248 6.552zm-7.896 0v-12.12h3.504v4.464h3.672v2.808h-3.672v4.848zm15.658 5.364a7.4 7.4 0 0 1-1.512-.156 5.1 5.1 0 0 1-1.404-.516l.756-2.952q.384.216.84.336.468.12.864.12.72 0 1.188-.312t.696-1.02l.252-.768-4.728-12.216h3.804l2.904 8.664 2.82-8.664h3.708l-5.088 13.5q-.6 1.512-1.38 2.376-.78.876-1.716 1.236a5.4 5.4 0 0 1-2.004.372m12.022-5.364v-12.12h12.108v12.12h-3.504v-9.312h-5.1v9.312zm21.215.36q-1.956 0-3.468-.876a6.5 6.5 0 0 1-2.376-2.328 6.3 6.3 0 0 1-.852-3.216q0-1.284.492-2.436a6.3 6.3 0 0 1 1.392-2.052q.9-.9 2.124-1.416t2.688-.516q1.956 0 3.456.876a6.4 6.4 0 0 1 2.364 2.34q.864 1.452.864 3.204 0 1.272-.492 2.436a6.4 6.4 0 0 1-1.392 2.064 6.6 6.6 0 0 1-2.112 1.404q-1.224.516-2.688.516m0-3.036q.924 0 1.656-.408.732-.42 1.152-1.176.42-.768.42-1.8 0-1.044-.42-1.8a2.85 2.85 0 0 0-1.14-1.164q-.732-.42-1.668-.42t-1.68.42q-.732.408-1.152 1.164-.408.756-.408 1.8t.42 1.8 1.152 1.176q.732.408 1.668.408m8.946 2.94-1.165-3.108q1.237-.312 1.801-.936t.708-1.692q.156-1.08.156-2.748v-3.9h10.404v12.12h-3.504v-9.312h-3.696v1.092q0 1.872-.216 3.312-.204 1.44-.72 2.484a4.6 4.6 0 0 1-1.428 1.692q-.912.66-2.34.996m18.692.096q-1.224 0-2.184-.468a3.65 3.65 0 0 1-1.512-1.332q-.552-.876-.552-2.088 0-1.032.516-1.836t1.56-1.32q1.056-.528 2.664-.708 1.62-.192 3.816.024l.036 2.232q-1.308-.216-2.316-.204-.996.012-1.68.204-.672.192-1.02.564-.348.36-.348.876 0 .708.528 1.092.528.372 1.428.372.78 0 1.404-.276t.996-.804.372-1.284v-2.904q0-.708-.3-1.236-.288-.54-.912-.828-.624-.3-1.632-.3-.936 0-1.872.288a5.4 5.4 0 0 0-1.692.852l-.924-2.448a8.5 8.5 0 0 1 2.472-1.08 10 10 0 0 1 2.556-.348q1.704 0 2.976.54t1.968 1.668q.708 1.116.708 2.844v7.548h-3.048v-1.332q-.6.816-1.644 1.26-1.044.432-2.364.432m-187.006 29.64v-16.8h10.56v2.376h-7.872v4.56h3.06q2.724 0 4.368 1.26 1.644 1.248 1.644 3.672 0 1.584-.72 2.688-.708 1.092-2.064 1.668-1.344.576-3.24.576zm2.688-2.112h2.904q1.632 0 2.508-.72.888-.72.888-2.064 0-1.308-.876-2.076t-2.412-.768h-3.012zm12.175 7.152v-16.92h2.376v1.668a5.4 5.4 0 0 1 1.812-1.464q1.104-.564 2.724-.564 1.74 0 3.084.828a5.65 5.65 0 0 1 2.112 2.244q.756 1.416.756 3.228 0 1.308-.432 2.46-.432 1.14-1.236 2.004a5.7 5.7 0 0 1-1.896 1.356q-1.092.48-2.424.48-1.392 0-2.448-.504a5.5 5.5 0 0 1-1.8-1.356v6.54zm6.432-7.02q1.104 0 1.956-.48a3.43 3.43 0 0 0 1.344-1.38q.492-.888.492-2.1t-.492-2.1q-.492-.9-1.356-1.38-.852-.48-1.944-.48-1.104 0-1.968.48-.852.48-1.344 1.38-.492.888-.492 2.1t.492 2.1a3.54 3.54 0 0 0 1.344 1.38q.864.48 1.968.48m12.384 2.34q-1.236 0-2.172-.456a3.6 3.6 0 0 1-1.464-1.308q-.516-.852-.516-2.004 0-.972.492-1.752.492-.792 1.524-1.308 1.044-.516 2.676-.684 1.632-.18 3.924.048l.048 1.824q-1.632-.228-2.808-.192t-1.932.3q-.744.252-1.104.684-.348.42-.348.972 0 .864.612 1.332.624.468 1.704.468.924 0 1.656-.336t1.152-.948q.432-.612.432-1.44v-3.156q0-.792-.336-1.368-.336-.588-1.02-.912t-1.704-.324q-.936 0-1.848.288a5.8 5.8 0 0 0-1.74.876l-.744-1.944a7.5 7.5 0 0 1 2.328-1.068 9.3 9.3 0 0 1 2.328-.312q1.656 0 2.832.528 1.188.516 1.824 1.572.636 1.044.636 2.64v7.62h-2.376v-1.404q-.6.852-1.668 1.308t-2.388.456m12.172-.36v-9.696h-3.9v-2.184h10.452v2.184h-3.912v9.696zm7.814.204-.924-2.376q1.224-.312 1.788-.984.576-.672.72-1.872.156-1.2.156-3.096v-3.756h9.66v11.88h-2.64v-9.696h-4.56v1.572q0 1.908-.18 3.324-.168 1.416-.624 2.412a4.25 4.25 0 0 1-1.284 1.632q-.816.624-2.112.96m18.561.156q-.888 0-1.764-.168a7.3 7.3 0 0 1-1.644-.492 4.8 4.8 0 0 1-1.32-.888l1.152-1.812q.66.612 1.56.924a5.6 5.6 0 0 0 1.836.312q1.272 0 2.184-.456a3.14 3.14 0 0 0 1.392-1.416q.48-.948.48-2.4 0-2.04-1.044-3.06-1.032-1.02-2.928-1.02-.948 0-1.8.336-.852.324-1.464.852l-1.02-1.824q.816-.684 2.052-1.08a8 8 0 0 1 2.52-.408q1.86 0 3.24.78a5.4 5.4 0 0 1 2.148 2.16q.768 1.392.768 3.252 0 1.452-.456 2.64a5.6 5.6 0 0 1-1.284 2.016 5.6 5.6 0 0 1-2.004 1.296q-1.164.456-2.604.456m-2.364-5.448v-1.98h7.02v1.98zm11.353 5.088v-11.88h2.64v4.584h5.952v-4.584h2.64v11.88h-2.64v-5.112h-5.952v5.112zm23.534 0v-9.696h-4.8v1.572q0 1.62-.192 2.928t-.684 2.304a4.46 4.46 0 0 1-1.38 1.632q-.876.648-2.244.948l-.648-1.788q1.14-.276 1.716-1.032t.768-1.992q.204-1.248.204-3v-3.756h9.9v11.88zm-9.948 3.6v-5.7l1.632.168.408-.252h12.936v5.784h-2.412v-3.6h-10.152v3.6zm175.622-39.599a8.2 8.2 0 0 0-4.303 1.202 7.7 7.7 0 0 0-2.304 2.145 7.7 7.7 0 0 0-2.304-2.145c-2.45-1.492-5.459-1.601-8.258-.294a7.57 7.57 0 0 0-3.05 2.557c-4.372 6.369 2.303 15.175 10.009 21.291 2.09 1.658 5.119 1.657 7.207 0 7.706-6.116 14.381-14.923 10.007-21.291a7.55 7.55 0 0 0-3.049-2.557c-1.299-.607-2.643-.909-3.955-.909zm-5.356 7.263c0-1.598.892-3.096 2.384-4.006 1.706-1.038 3.836-1.099 5.842-.162a5.1 5.1 0 0 1 2.051 1.716c3.452 5.026-2.965 12.874-9.51 18.069a3.27 3.27 0 0 1-4.036 0c-6.544-5.196-12.962-13.045-9.511-18.07a5.1 5.1 0 0 1 2.052-1.717c2.007-.936 4.137-.877 5.843.163 1.492.91 2.384 2.408 2.384 4.005 0 .67.559 1.213 1.25 1.213.692 0 1.251-.542 1.251-1.211"/><rect width="411" height="95" x="13.5" y="376.918" fill="#fff" fill-opacity=".15" rx="24.5"/><rect width="411" height="95" x="13.5" y="376.918" stroke="url(#d)" rx="24.5"/><rect width="66" height="66" x="33" y="391.418" fill="#d9d9d9" rx="5"/><path fill="#fff" d="M120.364 417.418v-6.552q-1.02.288-1.98.456-.96.156-2.04.156-1.932 0-3.336-.648a4.6 4.6 0 0 1-2.16-2.028q-.756-1.392-.756-3.636v-4.548h3.552v4.056q0 1.992.852 2.808.864.816 2.484.816 1.02 0 1.812-.108.804-.108 1.572-.288v-7.284h3.552v16.8zm12.973.36q-1.98 0-3.48-.804a5.85 5.85 0 0 1-2.34-2.244q-.84-1.44-.84-3.372 0-1.404.48-2.58a6.05 6.05 0 0 1 1.368-2.028 6.2 6.2 0 0 1 2.076-1.332q1.2-.48 2.628-.48 1.572 0 2.784.552a5.4 5.4 0 0 1 2.028 1.548q.804.984 1.116 2.316.324 1.332.06 2.892h-9.288q0 .84.432 1.464.444.624 1.236.984.804.348 1.872.348 1.056 0 2.016-.288a6.4 6.4 0 0 0 1.812-.876l1.164 2.4q-.576.444-1.44.792-.864.336-1.836.516a9.4 9.4 0 0 1-1.848.192m-3.204-7.944h5.724q-.036-1.068-.756-1.692-.708-.624-1.956-.624t-2.076.624q-.816.624-.936 1.692m11.626 12.624v-17.16h3.048v1.488a5.1 5.1 0 0 1 1.764-1.332q1.08-.516 2.556-.516 1.752 0 3.12.816a5.67 5.67 0 0 1 2.148 2.256q.78 1.452.78 3.348 0 1.356-.456 2.52a6.2 6.2 0 0 1-1.26 2.04 5.8 5.8 0 0 1-1.932 1.368q-1.116.492-2.46.492-1.188 0-2.148-.396a5.1 5.1 0 0 1-1.668-1.116v6.192zm6.72-7.716q.936 0 1.668-.408.744-.42 1.152-1.176.42-.756.42-1.8t-.42-1.8a2.93 2.93 0 0 0-1.152-1.164q-.732-.42-1.668-.42-.924 0-1.656.42-.732.408-1.152 1.164t-.42 1.8.408 1.8q.42.756 1.152 1.176.732.408 1.668.408m9.1 2.676v-12.12h3.504v4.464h5.112v-4.464h3.504v12.12h-3.504v-4.848h-5.112v4.848zm15.539 0v-12.12h3.504v9.612h1.716q1.056 0 1.608-.444t.552-1.272-.516-1.284q-.504-.468-1.44-.468h-2.304v-2.484h2.58q2.46 0 3.864 1.068 1.416 1.068 1.416 3.168 0 1.32-.66 2.268-.66.936-1.872 1.452-1.2.504-2.832.504zm12.696 0v-12.12h3.504v12.12zm6.921 0v-12.12h3.348v7.152l5.676-7.152h3.12v12.12h-3.36v-7.248l-5.688 7.248zm6.06-13.92q-1.44 0-2.52-.564a4.17 4.17 0 0 1-1.68-1.56q-.588-.996-.552-2.304h2.856q-.036.96.48 1.548.516.576 1.416.576t1.404-.576q.516-.588.468-1.548h2.868q.036 1.284-.564 2.292a4.25 4.25 0 0 1-1.68 1.572q-1.08.564-2.496.564m23.731 13.92v-9.312h-3.936v1.092q0 1.464-.228 2.772a7.8 7.8 0 0 1-.792 2.364 5.3 5.3 0 0 1-1.56 1.776q-.984.72-2.52 1.02l-.72-2.424q1.092-.24 1.656-1.008t.756-1.92a15 15 0 0 0 .204-2.58v-3.9h10.644v12.12zm-9.756 3.6v-6.312l1.92.156.552-.252h13.224v6.408h-3.204v-3.6h-9.288v3.6zm23.293-3.24q-1.98 0-3.48-.804a5.85 5.85 0 0 1-2.34-2.244q-.84-1.44-.84-3.372 0-1.404.48-2.58a6.05 6.05 0 0 1 1.368-2.028 6.2 6.2 0 0 1 2.076-1.332q1.2-.48 2.628-.48 1.572 0 2.784.552a5.4 5.4 0 0 1 2.028 1.548q.804.984 1.116 2.316.324 1.332.06 2.892h-9.288q0 .84.432 1.464.444.624 1.236.984.804.348 1.872.348 1.056 0 2.016-.288a6.4 6.4 0 0 0 1.812-.876l1.164 2.4q-.576.444-1.44.792-.864.336-1.836.516a9.4 9.4 0 0 1-1.848.192m-3.204-7.944h5.724q-.036-1.068-.756-1.692-.708-.624-1.956-.624t-2.076.624q-.816.624-.936 1.692m11.482 7.848-1.164-3.108q1.236-.312 1.8-.936t.708-1.692q.156-1.08.156-2.748v-3.9h10.404v12.12h-3.504v-9.312h-3.696v1.092q0 1.872-.216 3.312-.204 1.44-.72 2.484a4.6 4.6 0 0 1-1.428 1.692q-.912.66-2.34.996m15.308-.264v-12.12h3.504v9.612h1.836q1.056 0 1.608-.444t.552-1.272-.516-1.284q-.504-.468-1.44-.468h-2.424v-2.484h2.7q2.46 0 3.864 1.068 1.416 1.068 1.416 3.168 0 1.32-.66 2.268-.66.936-1.872 1.452-1.2.504-2.832.504zm19.641 5.04v-22.32h3.504v22.32zm1.704-4.728q-2.724 0-4.668-.744t-2.988-2.16q-1.044-1.428-1.044-3.468t1.056-3.468q1.068-1.428 3.036-2.16 1.968-.744 4.716-.744t4.692.744q1.956.732 2.988 2.148t1.032 3.48q0 1.536-.612 2.736a5.45 5.45 0 0 1-1.764 1.992q-1.14.804-2.772 1.224t-3.672.42m.072-2.832q1.836 0 3-.384 1.176-.396 1.74-1.176.564-.792.564-1.98t-.576-1.968q-.576-.792-1.764-1.176-1.176-.396-3-.396t-3 .396q-1.164.384-1.74 1.176-.564.78-.564 1.968t.564 1.98q.576.78 1.752 1.176 1.188.384 3.024.384m11.161 2.52v-12.12h3.348v7.152l5.676-7.152h3.12v12.12h-3.36v-7.248l-5.688 7.248zm15.563 0v-12.12h3.504v4.464h5.112v-4.464h3.504v12.12h-3.504v-4.848h-5.112v4.848zm-196.606 30v-16.8h9.516v2.46h-6.828v14.34zm10.925 0v-11.88h2.556v8.016l6.444-8.016h2.304v11.88h-2.544v-8.112l-6.504 8.112zm20.389.36q-1.86 0-3.324-.852a6.3 6.3 0 0 1-2.28-2.292 6.2 6.2 0 0 1-.828-3.156 6.2 6.2 0 0 1 .468-2.4q.48-1.14 1.344-2.016a6.5 6.5 0 0 1 2.052-1.38q1.176-.504 2.58-.504 1.86 0 3.312.864a6.2 6.2 0 0 1 2.292 2.292q.828 1.428.828 3.144 0 1.26-.48 2.4a6.2 6.2 0 0 1-1.332 2.016 6.3 6.3 0 0 1-2.04 1.38q-1.176.504-2.592.504m0-2.34q1.104 0 1.956-.48a3.5 3.5 0 0 0 1.356-1.38q.492-.888.492-2.1t-.492-2.1q-.492-.9-1.356-1.38-.852-.48-1.956-.48t-1.968.48q-.852.48-1.344 1.38-.48.888-.48 2.1t.492 2.1a3.54 3.54 0 0 0 1.344 1.38q.864.48 1.956.48m15.327 1.98v-16.8h13.512v16.8h-2.688v-14.34h-8.136v14.34zm17.534 0v-11.88h2.556v8.016l6.444-8.016h2.304v11.88h-2.544v-8.112l-6.504 8.112zm22.873 0-3.936-6.312 3.66-5.568h2.82l-3.636 5.448 4.248 6.432zm-7.896 0v-11.88h2.64v4.584h3.576v2.184h-3.576v5.112zm16.683.36q-1.236 0-2.172-.456a3.6 3.6 0 0 1-1.464-1.308q-.516-.852-.516-2.004 0-.972.492-1.752.492-.792 1.524-1.308 1.044-.516 2.676-.684 1.632-.18 3.924.048l.048 1.824q-1.632-.228-2.808-.192t-1.932.3q-.744.252-1.104.684-.348.42-.348.972 0 .864.612 1.332.624.468 1.704.468.924 0 1.656-.336t1.152-.948q.432-.612.432-1.44v-3.156q0-.792-.336-1.368-.336-.588-1.02-.912t-1.704-.324q-.936 0-1.848.288a5.8 5.8 0 0 0-1.74.876l-.744-1.944a7.5 7.5 0 0 1 2.328-1.068 9.3 9.3 0 0 1 2.328-.312q1.656 0 2.832.528 1.188.516 1.824 1.572.636 1.044.636 2.64v7.62h-2.376v-1.404q-.6.852-1.668 1.308t-2.388.456m174.588-36.359a8.2 8.2 0 0 0-4.303 1.202 7.7 7.7 0 0 0-2.304 2.145 7.7 7.7 0 0 0-2.304-2.145c-2.45-1.492-5.459-1.601-8.258-.294a7.57 7.57 0 0 0-3.05 2.557c-4.372 6.369 2.303 15.175 10.009 21.291 2.09 1.658 5.119 1.657 7.207 0 7.706-6.116 14.381-14.923 10.007-21.291a7.55 7.55 0 0 0-3.049-2.557c-1.299-.607-2.643-.909-3.955-.909z"/><rect width="411" height="95" x="13.5" y="482.918" fill="#fff" fill-opacity=".15" rx="24.5"/><rect width="411" height="95" x="13.5" y="482.918" stroke="url(#e)" rx="24.5"/><rect width="66" height="66" x="33" y="497.418" fill="#d9d9d9" rx="5"/><path fill="#fff" d="M111.052 523.418v-16.8h14.232v16.8h-3.552v-13.56h-7.128v13.56zm17.98 5.04v-17.16h3.048v1.488a5.1 5.1 0 0 1 1.764-1.332q1.08-.516 2.556-.516 1.752 0 3.12.816a5.67 5.67 0 0 1 2.148 2.256q.78 1.452.78 3.348 0 1.356-.456 2.52a6.2 6.2 0 0 1-1.26 2.04 5.8 5.8 0 0 1-1.932 1.368q-1.116.492-2.46.492-1.188 0-2.148-.396a5.1 5.1 0 0 1-1.668-1.116v6.192zm6.72-7.716q.936 0 1.668-.408.744-.42 1.152-1.176.42-.756.42-1.8t-.42-1.8a2.93 2.93 0 0 0-1.152-1.164q-.732-.42-1.668-.42-.924 0-1.656.42-.732.408-1.152 1.164t-.42 1.8.408 1.8q.42.756 1.152 1.176.732.408 1.668.408m14.918 3.036q-1.956 0-3.468-.876a6.5 6.5 0 0 1-2.376-2.328 6.3 6.3 0 0 1-.852-3.216q0-1.284.492-2.436a6.3 6.3 0 0 1 1.392-2.052q.9-.9 2.124-1.416t2.688-.516q1.956 0 3.456.876a6.4 6.4 0 0 1 2.364 2.34q.864 1.452.864 3.204 0 1.272-.492 2.436a6.4 6.4 0 0 1-1.392 2.064 6.6 6.6 0 0 1-2.112 1.404q-1.224.516-2.688.516m0-3.036q.924 0 1.656-.408.732-.42 1.152-1.176.42-.768.42-1.8 0-1.044-.42-1.8a2.85 2.85 0 0 0-1.14-1.164q-.732-.42-1.668-.42t-1.68.42q-.732.408-1.152 1.164-.408.756-.408 1.8t.42 1.8 1.152 1.176q.732.408 1.668.408m9.089 2.676v-12.12h6.168q2.136 0 3.36.78 1.224.768 1.224 2.34 0 .816-.42 1.404a3 3 0 0 1-1.116.936q-.696.36-1.584.504l-.048-.78q1.716.18 2.7 1.044.984.852.984 2.22 0 1.14-.576 1.968-.576.816-1.68 1.26t-2.676.444zm3.348-2.424h2.532q.948 0 1.452-.324.516-.336.516-.972 0-.612-.504-.936-.492-.324-1.464-.324h-2.88v-2.304h2.58q.9 0 1.392-.276.492-.288.492-.912t-.504-.924q-.492-.312-1.38-.312h-2.232zm10.597 2.424v-12.12h3.348v7.152l5.676-7.152h3.12v12.12h-3.36v-7.248l-5.688 7.248zm15.563 0v-12.12h3.504v4.464h5.112v-4.464h3.504v12.12h-3.504v-4.848h-5.112v4.848zm15.539 0v-12.12h3.504v9.312h4.74v-9.312h3.504v12.12zm11.748 3.6v-3.6h-1.56v-2.808h4.752v6.408zm5.314-3.6v-12.12h3.348v7.152l5.676-7.152h3.12v12.12h-3.36v-7.248l-5.688 7.248zm14.663 0 4.344-6.36.888 2.172q-1.428 0-2.508-.456t-1.692-1.308q-.6-.852-.6-2.04 0-1.296.624-2.208.636-.924 1.788-1.416 1.164-.504 2.736-.504h5.652v12.12h-3.336v-9.612h-1.932q-1.008 0-1.548.384-.528.384-.528 1.128 0 .732.48 1.14.492.408 1.404.408h2.484v2.4h-1.632l-2.772 4.152zm20.282 0v-12.12h3.06l5.088 7.608-1.5.024 4.8-7.632h3.06v12.12h-3.096l.036-8.22.684.276-3.816 5.772h-2.112l-4.032-5.784.66-.264.06 8.22zm23.607.36q-1.956 0-3.468-.876a6.5 6.5 0 0 1-2.376-2.328 6.3 6.3 0 0 1-.852-3.216q0-1.284.492-2.436a6.3 6.3 0 0 1 1.392-2.052q.9-.9 2.124-1.416t2.688-.516q1.956 0 3.456.876a6.4 6.4 0 0 1 2.364 2.34q.864 1.452.864 3.204 0 1.272-.492 2.436a6.4 6.4 0 0 1-1.392 2.064 6.6 6.6 0 0 1-2.112 1.404q-1.224.516-2.688.516m0-3.036q.924 0 1.656-.408.732-.42 1.152-1.176.42-.768.42-1.8 0-1.044-.42-1.8a2.85 2.85 0 0 0-1.14-1.164q-.732-.42-1.668-.42t-1.68.42q-.732.408-1.152 1.164-.408.756-.408 1.8t.42 1.8 1.152 1.176q.732.408 1.668.408m8.189 2.676 4.344-6.36.888 2.172q-1.428 0-2.508-.456t-1.692-1.308q-.6-.852-.6-2.04 0-1.296.624-2.208.636-.924 1.788-1.416 1.164-.504 2.736-.504h5.652v12.12h-3.336v-9.612h-1.932q-1.008 0-1.548.384-.528.384-.528 1.128 0 .732.48 1.14.492.408 1.404.408h2.484v2.4h-1.632l-2.772 4.152zm-174.233 30v-14.34h-4.728v-2.46h12.144v2.46h-4.728v14.34zm8.812 5.04v-16.92h2.376v1.668a5.4 5.4 0 0 1 1.812-1.464q1.104-.564 2.724-.564 1.74 0 3.084.828a5.65 5.65 0 0 1 2.112 2.244q.756 1.416.756 3.228 0 1.308-.432 2.46-.432 1.14-1.236 2.004a5.7 5.7 0 0 1-1.896 1.356q-1.092.48-2.424.48-1.392 0-2.448-.504a5.5 5.5 0 0 1-1.8-1.356v6.54zm6.432-7.02q1.104 0 1.956-.48a3.43 3.43 0 0 0 1.344-1.38q.492-.888.492-2.1t-.492-2.1q-.492-.9-1.356-1.38-.852-.48-1.944-.48-1.104 0-1.968.48-.852.48-1.344 1.38-.492.888-.492 2.1t.492 2.1a3.54 3.54 0 0 0 1.344 1.38q.864.48 1.968.48m9.083 1.98v-11.88h2.556v8.016l6.444-8.016h2.304v11.88h-2.544v-8.112l-6.504 8.112zm18.277.36q-1.236 0-2.172-.456a3.6 3.6 0 0 1-1.464-1.308q-.516-.852-.516-2.004 0-.972.492-1.752.492-.792 1.524-1.308 1.044-.516 2.676-.684 1.632-.18 3.924.048l.048 1.824q-1.632-.228-2.808-.192t-1.932.3q-.744.252-1.104.684-.348.42-.348.972 0 .864.612 1.332.624.468 1.704.468.924 0 1.656-.336t1.152-.948q.432-.612.432-1.44v-3.156q0-.792-.336-1.368-.336-.588-1.02-.912t-1.704-.324q-.936 0-1.848.288a5.8 5.8 0 0 0-1.74.876l-.744-1.944a7.5 7.5 0 0 1 2.328-1.068 9.3 9.3 0 0 1 2.328-.312q1.656 0 2.832.528 1.188.516 1.824 1.572.636 1.044.636 2.64v7.62h-2.376v-1.404q-.6.852-1.668 1.308t-2.388.456m9.942-.36v-11.88h7.824v2.184h-5.184v9.696zm11.637 5.376q-.648 0-1.272-.144a4.4 4.4 0 0 1-1.224-.492l.6-2.256q.372.24.816.36t.792.12q.84 0 1.32-.396t.756-1.224l.396-1.152-4.68-12.072h2.892l3.288 9.216 3.204-9.216h2.796l-5.136 13.596q-.552 1.428-1.236 2.22-.684.804-1.512 1.116a4.9 4.9 0 0 1-1.8.324m14.757-5.376v-9.696h-3.9v-2.184h10.452v2.184h-3.912v9.696zm8.973 5.04v-16.92h2.376v1.668a5.4 5.4 0 0 1 1.812-1.464q1.104-.564 2.724-.564 1.74 0 3.084.828a5.65 5.65 0 0 1 2.112 2.244q.756 1.416.756 3.228 0 1.308-.432 2.46-.432 1.14-1.236 2.004a5.7 5.7 0 0 1-1.896 1.356q-1.092.48-2.424.48-1.392 0-2.448-.504a5.5 5.5 0 0 1-1.8-1.356v6.54zm6.432-7.02q1.104 0 1.956-.48a3.43 3.43 0 0 0 1.344-1.38q.492-.888.492-2.1t-.492-2.1q-.492-.9-1.356-1.38-.852-.48-1.944-.48-1.104 0-1.968.48-.852.48-1.344 1.38-.492.888-.492 2.1t.492 2.1a3.54 3.54 0 0 0 1.344 1.38q.864.48 1.968.48m9.084 1.98v-11.88h2.556v8.016l6.444-8.016h2.304v11.88h-2.544v-8.112l-6.504 8.112zm22.872 0-3.936-6.312 3.66-5.568h2.82l-3.636 5.448 4.248 6.432zm-7.896 0v-11.88h2.64v4.584h3.576v2.184h-3.576v5.112zm16.683.36q-1.236 0-2.172-.456a3.6 3.6 0 0 1-1.464-1.308q-.516-.852-.516-2.004 0-.972.492-1.752.492-.792 1.524-1.308 1.044-.516 2.676-.684 1.632-.18 3.924.048l.048 1.824q-1.632-.228-2.808-.192t-1.932.3q-.744.252-1.104.684-.348.42-.348.972 0 .864.612 1.332.624.468 1.704.468.924 0 1.656-.336t1.152-.948q.432-.612.432-1.44v-3.156q0-.792-.336-1.368-.336-.588-1.02-.912t-1.704-.324q-.936 0-1.848.288a5.8 5.8 0 0 0-1.74.876l-.744-1.944a7.5 7.5 0 0 1 2.328-1.068 9.3 9.3 0 0 1 2.328-.312q1.656 0 2.832.528 1.188.516 1.824 1.572.636 1.044.636 2.64v7.62h-2.376v-1.404q-.6.852-1.668 1.308t-2.388.456m132.143-36.359a8.2 8.2 0 0 0-4.303 1.202 7.7 7.7 0 0 0-2.304 2.145 7.7 7.7 0 0 0-2.304-2.145c-2.45-1.492-5.459-1.601-8.258-.294a7.57 7.57 0 0 0-3.05 2.557c-4.372 6.369 2.303 15.175 10.009 21.291 2.09 1.658 5.119 1.657 7.207 0 7.706-6.116 14.381-14.923 10.007-21.291a7.55 7.55 0 0 0-3.049-2.557c-1.299-.607-2.643-.909-3.955-.909zm-5.356 7.263c0-1.598.892-3.096 2.384-4.006 1.706-1.038 3.836-1.099 5.842-.162a5.1 5.1 0 0 1 2.051 1.716c3.452 5.026-2.965 12.874-9.51 18.069a3.27 3.27 0 0 1-4.036 0c-6.544-5.196-12.962-13.045-9.511-18.07a5.1 5.1 0 0 1 2.052-1.717c2.007-.936 4.137-.877 5.843.163 1.492.91 2.384 2.408 2.384 4.005 0 .67.559 1.213 1.25 1.213.692 0 1.251-.542 1.251-1.211"/><rect width="411" height="95" x="13.5" y="588.918" fill="#fff" fill-opacity=".15" rx="24.5"/><rect width="411" height="95" x="13.5" y="588.918" stroke="url(#f)" rx="24.5"/><rect width="66" height="66" x="33" y="603.418" fill="#d9d9d9" rx="5"/><path fill="#fff" d="M111.052 629.418v-16.8h3.552v6.372h7.128v-6.372h3.552v16.8h-3.552v-7.176h-7.128v7.176zm23.68.36q-1.956 0-3.468-.876a6.5 6.5 0 0 1-2.376-2.328 6.3 6.3 0 0 1-.852-3.216q0-1.284.492-2.436a6.3 6.3 0 0 1 1.392-2.052q.9-.9 2.124-1.416t2.688-.516q1.956 0 3.456.876a6.4 6.4 0 0 1 2.364 2.34q.864 1.452.864 3.204 0 1.272-.492 2.436a6.4 6.4 0 0 1-1.392 2.064 6.6 6.6 0 0 1-2.112 1.404q-1.224.516-2.688.516m0-3.036q.924 0 1.656-.408.732-.42 1.152-1.176.42-.768.42-1.8 0-1.044-.42-1.8a2.85 2.85 0 0 0-1.14-1.164q-.732-.42-1.668-.42t-1.68.42q-.732.408-1.152 1.164-.408.756-.408 1.8t.42 1.8 1.152 1.176q.732.408 1.668.408m9.089 2.676v-12.12h6.168q2.136 0 3.36.78 1.224.768 1.224 2.34 0 .816-.42 1.404a3 3 0 0 1-1.116.936q-.696.36-1.584.504l-.048-.78q1.716.18 2.7 1.044.984.852.984 2.22 0 1.14-.576 1.968-.576.816-1.68 1.26t-2.676.444zm3.348-2.424h2.532q.948 0 1.452-.324.516-.336.516-.972 0-.612-.504-.936-.492-.324-1.464-.324h-2.88v-2.304h2.58q.9 0 1.392-.276.492-.288.492-.912t-.504-.924q-.492-.312-1.38-.312h-2.232zm16.298 2.784q-1.956 0-3.468-.876a6.5 6.5 0 0 1-2.376-2.328 6.3 6.3 0 0 1-.852-3.216q0-1.284.492-2.436a6.3 6.3 0 0 1 1.392-2.052q.9-.9 2.124-1.416t2.688-.516q1.956 0 3.456.876a6.37 6.37 0 0 1 2.363 2.34 6.14 6.14 0 0 1 .865 3.204q0 1.272-.492 2.436a6.4 6.4 0 0 1-1.392 2.064 6.6 6.6 0 0 1-2.112 1.404q-1.224.516-2.688.516m0-3.036q.924 0 1.656-.408.732-.42 1.152-1.176.42-.768.42-1.8 0-1.044-.42-1.8a2.85 2.85 0 0 0-1.14-1.164q-.732-.42-1.668-.42t-1.68.42q-.732.408-1.152 1.164-.408.756-.408 1.8t.42 1.8 1.152 1.176q.732.408 1.668.408m9.089 2.676v-12.12h8.208v2.808h-4.704v9.312zm16.153.36q-1.956 0-3.468-.876a6.5 6.5 0 0 1-2.376-2.328 6.3 6.3 0 0 1-.852-3.216q0-1.284.492-2.436a6.3 6.3 0 0 1 1.392-2.052q.9-.9 2.124-1.416t2.688-.516q1.956 0 3.456.876a6.4 6.4 0 0 1 2.364 2.34q.864 1.452.864 3.204 0 1.272-.492 2.436a6.4 6.4 0 0 1-1.392 2.064 6.6 6.6 0 0 1-2.112 1.404q-1.224.516-2.688.516m0-3.036q.924 0 1.656-.408.732-.42 1.152-1.176.42-.768.42-1.8 0-1.044-.42-1.8a2.85 2.85 0 0 0-1.14-1.164q-.732-.42-1.668-.42t-1.68.42q-.732.408-1.152 1.164-.408.756-.408 1.8t.42 1.8 1.152 1.176q.732.408 1.668.408m17.669 2.676v-9.312h-3.936v1.092q0 1.464-.228 2.772a7.8 7.8 0 0 1-.792 2.364 5.3 5.3 0 0 1-1.56 1.776q-.984.72-2.52 1.02l-.72-2.424q1.092-.24 1.656-1.008t.756-1.92a15 15 0 0 0 .204-2.58v-3.9h10.644v12.12zm-9.756 3.6v-6.312l1.92.156.552-.252h13.224v6.408h-3.204v-3.6h-9.288v3.6zm17.793-3.6v-12.12h3.504v4.464h5.112v-4.464h3.504v12.12h-3.504v-4.848h-5.112v4.848zm14.639 0 4.344-6.36.888 2.172q-1.428 0-2.508-.456t-1.692-1.308q-.6-.852-.6-2.04 0-1.296.624-2.208.636-.924 1.788-1.416 1.164-.504 2.736-.504h5.652v12.12h-3.336v-9.612h-1.932q-1.008 0-1.548.384-.528.384-.528 1.128 0 .732.48 1.14.492.408 1.404.408h2.484v2.4h-1.632l-2.772 4.152zm13.734 0 4.344-6.36.888 2.172q-1.428 0-2.508-.456t-1.692-1.308q-.6-.852-.6-2.04 0-1.296.624-2.208.636-.924 1.788-1.416 1.164-.504 2.736-.504h5.652v12.12h-3.336v-9.612h-1.932q-1.008 0-1.548.384-.528.384-.528 1.128 0 .732.48 1.14.492.408 1.404.408h2.484v2.4h-1.632l-2.772 4.152zm-131.604 30v-16.8h9.516v2.46h-6.828v14.34zm12.367 5.376q-.648 0-1.272-.144a4.4 4.4 0 0 1-1.224-.492l.6-2.256q.372.24.816.36t.792.12q.84 0 1.32-.396t.756-1.224l.396-1.152-4.68-12.072h2.892l3.288 9.216 3.204-9.216h2.796l-5.136 13.596q-.552 1.428-1.236 2.22-.684.804-1.512 1.116a4.9 4.9 0 0 1-1.8.324m17.613-.336v-22.32h2.64v22.32zm1.296-4.728q-2.496 0-4.368-.708-1.86-.72-2.892-2.112-1.032-1.404-1.032-3.432 0-2.04 1.032-3.432 1.044-1.392 2.928-2.1 1.884-.72 4.392-.72 2.532 0 4.392.708 1.872.708 2.904 2.1t1.032 3.444q0 1.524-.6 2.7a5.4 5.4 0 0 1-1.716 1.956q-1.116.792-2.652 1.2-1.536.396-3.42.396m.048-2.184q1.836 0 3.096-.456 1.272-.456 1.932-1.356t.66-2.256-.684-2.256q-.672-.912-1.956-1.356-1.272-.456-3.084-.456-1.8 0-3.072.456-1.272.444-1.944 1.356-.672.9-.672 2.256t.672 2.256q.684.9 1.956 1.356 1.284.456 3.096.456m239.099-34.127a8.2 8.2 0 0 0-4.303 1.202 7.7 7.7 0 0 0-2.304 2.145 7.7 7.7 0 0 0-2.304-2.145c-2.45-1.492-5.459-1.601-8.258-.294a7.57 7.57 0 0 0-3.05 2.557c-4.372 6.369 2.303 15.175 10.009 21.291 2.09 1.658 5.119 1.657 7.207 0 7.706-6.116 14.381-14.923 10.007-21.291a7.55 7.55 0 0 0-3.049-2.557c-1.299-.607-2.643-.909-3.955-.909zm-5.356 7.263c0-1.598.892-3.096 2.384-4.006 1.706-1.038 3.836-1.099 5.842-.162a5.1 5.1 0 0 1 2.051 1.716c3.452 5.026-2.965 12.874-9.51 18.069a3.27 3.27 0 0 1-4.036 0c-6.544-5.196-12.962-13.045-9.511-18.07a5.1 5.1 0 0 1 2.052-1.717c2.007-.936 4.137-.877 5.843.163 1.492.91 2.384 2.408 2.384 4.005 0 .67.559 1.213 1.25 1.213.692 0 1.251-.542 1.251-1.211"/><rect width="400" height="60" x="23" y="756.418" fill="#fff" rx="25"/><path fill="#000" d="M104.684 794.418v-16.8h13.512v16.8h-2.688v-14.34h-8.136v14.34zm22.947.36q-1.86 0-3.324-.852a6.3 6.3 0 0 1-2.28-2.292 6.2 6.2 0 0 1-.828-3.156 6.2 6.2 0 0 1 .468-2.4q.48-1.14 1.344-2.016a6.5 6.5 0 0 1 2.052-1.38q1.176-.504 2.58-.504 1.86 0 3.312.864a6.2 6.2 0 0 1 2.292 2.292q.828 1.428.828 3.144 0 1.26-.48 2.4a6.2 6.2 0 0 1-1.332 2.016 6.3 6.3 0 0 1-2.04 1.38q-1.176.504-2.592.504m0-2.34q1.104 0 1.956-.48a3.5 3.5 0 0 0 1.356-1.38q.492-.888.492-2.1t-.492-2.1q-.492-.9-1.356-1.38-.852-.48-1.956-.48t-1.968.48q-.852.48-1.344 1.38-.48.888-.48 2.1t.492 2.1a3.54 3.54 0 0 0 1.344 1.38q.864.48 1.956.48m17.724 1.98v-9.696h-4.8v1.572q0 1.62-.192 2.928t-.684 2.304a4.46 4.46 0 0 1-1.38 1.632q-.876.648-2.244.948l-.648-1.788q1.14-.276 1.716-1.032t.768-1.992q.204-1.248.204-3v-3.756h9.9v11.88zm-9.948 3.6v-5.7l1.632.168.408-.252h12.936v5.784h-2.412v-3.6h-10.152v3.6zm18.761-3.6v-9.696h-3.9v-2.184h10.452v2.184h-3.912v9.696zm8.973 0v-11.88h5.664q2.016 0 3.228.768t1.212 2.304q0 .72-.348 1.284a2.9 2.9 0 0 1-.96.924 4.5 4.5 0 0 1-1.428.54l-.048-.588q1.572.216 2.436 1.044t.864 2.1q0 1.08-.564 1.872-.564.78-1.62 1.212-1.056.42-2.532.42zm2.556-1.956h2.988q1.188 0 1.824-.396.648-.396.648-1.188 0-.78-.636-1.164-.636-.396-1.836-.396h-3.336v-1.884h3.06q1.116 0 1.728-.336.612-.348.612-1.128t-.612-1.128q-.612-.36-1.728-.36h-2.712zm16.461 2.316q-1.92 0-3.372-.78a5.74 5.74 0 0 1-2.268-2.208q-.804-1.416-.804-3.288 0-1.368.468-2.52a5.96 5.96 0 0 1 3.312-3.336 6.6 6.6 0 0 1 2.508-.468q1.476 0 2.628.528a5.1 5.1 0 0 1 1.908 1.452 5.5 5.5 0 0 1 1.08 2.196q.324 1.248.108 2.712h-9.48q-.024 1.068.468 1.872.492.792 1.404 1.236.924.444 2.172.444 1.008 0 1.944-.3a5.6 5.6 0 0 0 1.716-.912l1.02 1.896q-.576.468-1.392.804a9.3 9.3 0 0 1-1.704.492q-.888.18-1.716.18m-3.756-7.656h6.732q-.036-1.344-.864-2.112-.816-.768-2.328-.768-1.464 0-2.436.768-.96.768-1.104 2.112m12.067 12.336v-16.92h2.376v1.668a5.4 5.4 0 0 1 1.812-1.464q1.104-.564 2.724-.564 1.74 0 3.084.828a5.65 5.65 0 0 1 2.112 2.244q.756 1.416.756 3.228 0 1.308-.432 2.46-.432 1.14-1.236 2.004a5.7 5.7 0 0 1-1.896 1.356q-1.092.48-2.424.48-1.392 0-2.448-.504a5.5 5.5 0 0 1-1.8-1.356v6.54zm6.432-7.02q1.104 0 1.956-.48a3.43 3.43 0 0 0 1.344-1.38q.492-.888.492-2.1t-.492-2.1q-.492-.9-1.356-1.38-.852-.48-1.944-.48-1.104 0-1.968.48-.852.48-1.344 1.38-.492.888-.492 2.1t.492 2.1a3.54 3.54 0 0 0 1.344 1.38q.864.48 1.968.48m17.711 1.98v-9.696h-4.8v1.572q0 1.62-.192 2.928t-.684 2.304a4.46 4.46 0 0 1-1.38 1.632q-.876.648-2.244.948l-.648-1.788q1.14-.276 1.716-1.032t.768-1.992q.204-1.248.204-3v-3.756h9.9v11.88zm-9.948 3.6v-5.7l1.632.168.408-.252h12.936v5.784h-2.412v-3.6h-10.152v3.6zm17.305-3.6v-11.88h2.556v8.016l6.444-8.016h2.304v11.88h-2.544v-8.112l-6.504 8.112zm17.628 0v-9.696h-3.9v-2.184h10.452v2.184h-3.912v9.696zm8.973 0v-11.88h2.64v9.876h2.268q1.296 0 1.956-.504t.66-1.5q0-.984-.612-1.512t-1.8-.528h-2.832v-1.98h3.036q2.304 0 3.624 1.032t1.32 2.988q0 1.26-.636 2.16-.636.888-1.788 1.368-1.14.48-2.676.48zm18.914 0v-11.88h5.664q2.016 0 3.228.768t1.212 2.304q0 .72-.348 1.284a2.9 2.9 0 0 1-.96.924 4.5 4.5 0 0 1-1.428.54l-.048-.588q1.572.216 2.436 1.044t.864 2.1q0 1.08-.564 1.872-.564.78-1.62 1.212-1.056.42-2.532.42zm2.556-1.956h2.988q1.188 0 1.824-.396.648-.396.648-1.188 0-.78-.636-1.164-.636-.396-1.836-.396h-3.336v-1.884h3.06q1.116 0 1.728-.336.612-.348.612-1.128t-.612-1.128q-.612-.36-1.728-.36h-2.712zm11.038 1.956v-11.88h2.64v9.876h2.148q1.296 0 1.956-.504t.66-1.5q0-.984-.612-1.512t-1.8-.528h-2.712v-1.98h2.916q2.304 0 3.624 1.032t1.32 2.988q0 1.26-.636 2.16-.636.888-1.788 1.368-1.14.48-2.676.48zm12.048 0v-11.88h2.64v11.88zm12.112.36q-1.5 0-2.712-.516a5.65 5.65 0 0 1-2.064-1.488q-.852-.984-1.308-2.388-.444-1.416-.444-3.216 0-1.98.3-3.552.312-1.572.972-2.724a5.8 5.8 0 0 1 1.764-1.896q1.104-.744 2.676-1.068l5.688-1.152.432 2.292-5.532 1.068q-1.392.288-2.184.924a3.7 3.7 0 0 0-1.164 1.62q-.372.984-.492 2.316a5.7 5.7 0 0 1 1.884-1.632q1.128-.612 2.628-.612 1.692 0 2.988.804a5.6 5.6 0 0 1 2.04 2.124q.732 1.332.732 2.952 0 1.26-.444 2.376a5.8 5.8 0 0 1-1.26 1.968q-.828.84-1.968 1.32t-2.532.48m-.06-2.34q1.044 0 1.86-.456a3.34 3.34 0 0 0 1.296-1.308q.468-.852.468-2.016t-.468-2.004a3.24 3.24 0 0 0-1.296-1.308q-.816-.468-1.86-.468t-1.872.468a3.26 3.26 0 0 0-1.284 1.308q-.468.84-.468 2.004t.468 2.016q.468.84 1.284 1.308.828.456 1.872.456m14.57 2.34q-1.86 0-3.324-.852a6.3 6.3 0 0 1-2.28-2.292 6.2 6.2 0 0 1-.828-3.156 6.2 6.2 0 0 1 .468-2.4q.48-1.14 1.344-2.016a6.5 6.5 0 0 1 2.052-1.38q1.176-.504 2.58-.504 1.86 0 3.312.864a6.2 6.2 0 0 1 2.292 2.292q.828 1.428.828 3.144 0 1.26-.48 2.4a6.2 6.2 0 0 1-1.332 2.016 6.3 6.3 0 0 1-2.04 1.38q-1.176.504-2.592.504m0-2.34q1.104 0 1.956-.48a3.5 3.5 0 0 0 1.356-1.38q.492-.888.492-2.1t-.492-2.1q-.492-.9-1.356-1.38-.852-.48-1.956-.48t-1.968.48q-.852.48-1.344 1.38-.48.888-.48 2.1t.492 2.1a3.54 3.54 0 0 0 1.344 1.38q.864.48 1.956.48m9.096 7.02v-16.92h2.376v1.668a5.4 5.4 0 0 1 1.812-1.464q1.104-.564 2.724-.564 1.74 0 3.084.828a5.65 5.65 0 0 1 2.112 2.244q.756 1.416.756 3.228 0 1.308-.432 2.46-.432 1.14-1.236 2.004a5.7 5.7 0 0 1-1.896 1.356q-1.092.48-2.424.48-1.392 0-2.448-.504a5.5 5.5 0 0 1-1.8-1.356v6.54zm6.432-7.02q1.104 0 1.956-.48a3.43 3.43 0 0 0 1.344-1.38q.492-.888.492-2.1t-.492-2.1q-.492-.9-1.356-1.38-.852-.48-1.944-.48-1.104 0-1.968.48-.852.48-1.344 1.38-.492.888-.492 2.1t.492 2.1a3.54 3.54 0 0 0 1.344 1.38q.864.48 1.968.48"/><defs><linearGradient id="b" x1="245.5" x2="616.437" y1="68.418" y2="417.797" gradientUnits="userSpaceOnUse"><stop stop-color="#363636"/><stop offset="1" stop-color="#fff"/></linearGradient><linearGradient id="c" x1="245.5" x2="616.437" y1="174.418" y2="523.797" gradientUnits="userSpaceOnUse"><stop stop-color="#363636"/><stop offset="1" stop-color="#fff"/></linearGradient><linearGradient id="d" x1="245.5" x2="616.437" y1="280.418" y2="629.797" gradientUnits="userSpaceOnUse"><stop stop-color="#363636"/><stop offset="1" stop-color="#fff"/></linearGradient><linearGradient id="e" x1="245.5" x2="616.437" y1="386.418" y2="735.797" gradientUnits="userSpaceOnUse"><stop stop-color="#363636"/><stop offset="1" stop-color="#fff"/></linearGradient><linearGradient id="f" x1="245.5" x2="616.437" y1="492.418" y2="841.797" gradientUnits="userSpaceOnUse"><stop stop-color="#363636"/><stop offset="1" stop-color="#fff"/></linearGradient><radialGradient id="a" cx="0" cy="0" r="1" gradientTransform="rotate(113.449 249.395 99.587)scale(1184.85 295.801)" gradientUnits="userSpaceOnUse"><stop stop-color="#ff291f"/><stop offset="1"/></radialGradient></defs></svg>