<svg xmlns="http://www.w3.org/2000/svg" fill="none" overflow="visible" preserveAspectRatio="none" style="display:block" viewBox="0 0 332.89 86.163"><g fill="var(--fill-0, white)" clip-path="url(#a)"><path d="M88.824 64.415a60 60 0 0 0-20.916-31.217A59.8 59.8 0 0 0 78.63 12.804 59 59 0 0 0 80.93 0C57.397.022 33.863.048 10.32.07c0 28.52.011 57.041.011 85.559h80.48c.135-1.65.208-3.327.208-5.017a60.4 60.4 0 0 0-2.198-16.196h.007zm-57.427 0V22.633H48.61q-.22.225-.449.44a37.8 37.8 0 0 1-6.898 5.346v23.69a58.5 58.5 0 0 0 9.764-4.468 38.36 38.36 0 0 1 15.048 16.774zm303.54 10.261a85 85 0 0 1-.296 5.332 83 83 0 0 1-.719 5.76h-21.278a51 51 0 0 0 .581-3.32c.095-.676.175-1.339.237-1.979 0 0 .347-3.085.347-5.793 0-22.739-12.579-43.443-31.6-51.933v63.025H261.18V0h19.732c27.931 5.998 43.658 32.634 48.792 46.027.595 1.556 2.355 7.75 3.805 15.38.555 2.92 1.227 6.441 1.387 10.964.033.966.041 1.764.037 2.309zM166.607.007a35.6 35.6 0 0 0-4.079 5.372c-.661 1.069-1.651 2.686-2.542 4.98-.92 2.372-1.256 4.224-1.577 5.991-.829 4.589-.668 8.116-.577 9.474.055.838.132 1.522.19 1.983h-15.417c.267-2.36.559-4.534.869-6.952h-19.203v64.781H103.07V8.552h.008V0h47.48zM199.308 0c1.388 14.945 11.294 27.416 24.801 32.48V.066h21.102v62.282l.15-.073v19.87l-1.344.472a64 64 0 0 1-3.096 1.003 61 61 0 0 1-12.514 2.342 59 59 0 0 1-5.455.197c-.234 0-.519 0-.811-.014a60.8 60.8 0 0 1-15.53-2.372 20 20 0 0 1-.847-.252 49 49 0 0 1-2.333-.754h-.008l-.007-.007q-.688-.246-1.387-.502c-2.472-.918-4.839-2.049-6.573-2.938a67 67 0 0 1-2.68-1.453l-.157-.091-.044-.026q-.005-.001-.011-.007l-.471-.278c-4.849-2.895-8.552-6.053-10.831-8.183l-1.8-1.68 2.005-1.43a148 148 0 0 0 5.901-4.435l.675-.538a138 138 0 0 0 4.459-3.725l1.3-1.131 1.314 1.112c3.104 2.632 6.829 5.124 11.258 7.041l.431.183c.467.198.942.384 1.431.57h.018l.11.045q.765.29 1.585.556c.131.044.241.077.347.113l.317.1.033.007.029.01.322.103c.215.066.434.132.653.19l.333.092h.011l.011.007c.836.234 1.676.443 2.519.619l.362.073h.007c2.414.49 4.878.783 7.372.852q.92.023 1.852.011V54.722C198.753 48.878 179.568 26.819 177.969 0z"/></g><defs><clipPath id="a"><path fill="#fff" d="M0 0h332.89v86.163H0z"/></clipPath></defs></svg>