<svg xmlns="http://www.w3.org/2000/svg" fill="none" overflow="visible" preserveAspectRatio="none" style="display:block" viewBox="0 0 415 147.255"><g fill="var(--fill-0, #ff3135)"><path d="M305 124.746a85.25 85.25 0 0 1 41.736 15.011c3.351 2.328 6.527 4.815 9.502 7.498H415a156 156 0 0 0-1.644-3.503c-7.893-16.372-19.297-30.743-33.23-42.147-20.558-16.824-46.647-27.2-75.126-27.978v51.126zm0-73.626a85.25 85.25 0 0 1 41.736 15.01c3.351 2.328 6.527 4.816 9.502 7.498H415a158 158 0 0 0-1.644-3.503c-7.893-16.372-19.297-30.743-33.23-42.147C359.568 11.154 333.479.778 305 0v51.126zM70.5 2.564a69.2 69.2 0 0 0-26.98 5.481 70.4 70.4 0 0 0-22.87 15.608A72.1 72.1 0 0 0 5.366 47.01 73.3 73.3 0 0 0 0 74.564a73.3 73.3 0 0 0 5.366 27.554 72.1 72.1 0 0 0 15.283 23.358 70.4 70.4 0 0 0 22.872 15.608 69.2 69.2 0 0 0 26.979 5.48z"/><path d="M125 2.564a70.15 70.15 0 0 0-27.17 5.481 70.9 70.9 0 0 0-23.035 15.608 72.1 72.1 0 0 0-15.39 23.358A72.9 72.9 0 0 0 54 74.564a72.9 72.9 0 0 0 5.405 27.554 72.1 72.1 0 0 0 15.39 23.358 71 71 0 0 0 23.034 15.608 70.2 70.2 0 0 0 27.171 5.48z"/></g></svg>