<svg xmlns="http://www.w3.org/2000/svg" fill="none" overflow="visible" preserveAspectRatio="none" style="display:block" viewBox="0 0 41.104 20.037"><path fill="var(--fill-0, white)" d="M30.513 20.037q-1.668 0-2.842-1.161t-1.174-2.81q-.001-1.643 1.174-2.804a3.9 3.9 0 0 1 2.842-1.168q1.555 0 2.715 1.035V9.172h1.31v10.865h-1.31v-1.035a3.95 3.95 0 0 1-2.715 1.035m0-1.287a2.68 2.68 0 0 0 1.908-.784q.374-.37.59-.858.217-.488.217-1.043 0-.547-.217-1.035a2.7 2.7 0 0 0-.59-.85 2.6 2.6 0 0 0-.86-.578 2.6 2.6 0 0 0-1.048-.214q-.56 0-1.055.214a2.74 2.74 0 0 0-1.443 1.428q-.21.487-.21 1.035 0 .555.21 1.043.217.488.583.858.375.363.86.577.495.207 1.055.207M19.17 20.036v-7.943h1.31v.57a3 3 0 0 1 1.787-.57q.613 0 1.16.229t.957.629q.42.399.673.931.255.525.284 1.125l-.007 5.029h-1.31v-5.03a1.6 1.6 0 0 0-.171-.628 1.82 1.82 0 0 0-.935-.865 1.7 1.7 0 0 0-.65-.126q-.352 0-.667.133-.306.126-.546.348-.24.215-.389.51-.142.296-.164.629h-.023v5.029zm-5.44 0q-1.668 0-2.842-1.161t-1.175-2.81q0-1.643 1.175-2.804a3.9 3.9 0 0 1 2.842-1.168q1.555 0 2.715 1.035v-1.035h1.31v7.943h-1.31V19a3.95 3.95 0 0 1-2.715 1.036m0-1.287a2.68 2.68 0 0 0 1.907-.784q.375-.37.591-.858.217-.488.217-1.043 0-.547-.217-1.035a2.7 2.7 0 0 0-.59-.85 2.6 2.6 0 0 0-.86-.578 2.6 2.6 0 0 0-1.048-.214q-.561 0-1.055.214a2.74 2.74 0 0 0-1.443 1.428q-.21.488-.21 1.035 0 .555.21 1.043.217.488.583.858.374.363.86.577a2.7 2.7 0 0 0 1.055.207m-8.89 1.288q-1.57 0-2.707-1.035v1.035H.824V9.172h1.31v3.957q1.136-1.035 2.707-1.035.822 0 1.548.318a4 4 0 0 1 1.28.858q.552.54.874 1.264.322.718.322 1.531 0 .822-.322 1.546-.313.717-.867 1.257-.546.54-1.28.858a3.95 3.95 0 0 1-1.555.31m0-1.287a2.68 2.68 0 0 0 1.908-.784q.375-.37.591-.858.217-.488.217-1.043 0-.547-.217-1.035a2.7 2.7 0 0 0-.59-.85 2.6 2.6 0 0 0-.861-.578 2.6 2.6 0 0 0-1.047-.214q-.561 0-1.055.214a2.74 2.74 0 0 0-1.443 1.428q-.21.487-.21 1.035 0 .555.21 1.043.217.488.583.858.374.363.86.577.494.207 1.055.207M40.154 1.753a1.72 1.72 0 0 0-1.19-.459q-.35 0-.665.133a1.8 1.8 0 0 0-.546.348 1.7 1.7 0 0 0-.389.51q-.142.297-.164.629l-.023 5.03h-1.309V0h1.31v.57A3 3 0 0 1 38.964 0q1.242 0 2.124.85.008.008.015.008zm-10.162 6.19q-1.669 0-2.842-1.161-1.174-1.16-1.174-2.81 0-1.643 1.174-2.803A3.9 3.9 0 0 1 29.992 0q.823 0 1.549.318a4 4 0 0 1 1.279.858q.553.54.875 1.265a3.7 3.7 0 0 1 .262 2.181H27.36q.112.437.351.807.248.369.59.643.353.273.779.429a2.7 2.7 0 0 0 1.645.052 2.77 2.77 0 0 0 1.646-1.287H33.8a4 4 0 0 1-.576 1.072 4.03 4.03 0 0 1-1.975 1.405q-.598.2-1.257.2M27.36 3.328h5.266a2.5 2.5 0 0 0-.366-.799 2.7 2.7 0 0 0-.599-.65 2.7 2.7 0 0 0-.77-.43 2.6 2.6 0 0 0-.898-.155q-.47 0-.905.156a2.8 2.8 0 0 0-.778.429 2.6 2.6 0 0 0-.59.643 2.6 2.6 0 0 0-.36.806m-6.783 4.615L18.19 0h1.361l1.96 6.523L23.479 0h1.361l-2.386 7.943zm-7.523 0q-1.668 0-2.843-1.161-1.174-1.16-1.174-2.81 0-1.643 1.174-2.803A3.9 3.9 0 0 1 13.054 0q.822 0 1.548.318.733.31 1.28.858.552.54.874 1.265a3.7 3.7 0 0 1 .322 1.53q0 .822-.322 1.546-.314.718-.867 1.258-.545.54-1.28.858a3.95 3.95 0 0 1-1.555.31m0-1.287a2.68 2.68 0 0 0 1.907-.784q.375-.369.591-.858.217-.488.217-1.042 0-.547-.217-1.036a2.7 2.7 0 0 0-.59-.85 2.6 2.6 0 0 0-.861-.577 2.6 2.6 0 0 0-1.047-.215q-.561 0-1.055.215a2.74 2.74 0 0 0-1.444 1.427q-.21.488-.209 1.036 0 .555.21 1.042.216.489.583.858.374.363.86.577.494.207 1.055.207M4.017 7.943q-1.668 0-2.843-1.161Q0 5.622 0 3.972q0-1.643 1.174-2.803A3.9 3.9 0 0 1 4.017 0q.658 0 1.256.207a4.03 4.03 0 0 1 1.975 1.405q.374.488.576 1.065H6.395a2.6 2.6 0 0 0-.426-.547 2.7 2.7 0 0 0-.554-.444 2.77 2.77 0 0 0-1.398-.392q-.561 0-1.055.215a2.74 2.74 0 0 0-1.444 1.427q-.21.488-.209 1.036 0 .555.21 1.042.216.489.583.858.375.363.86.577.494.207 1.055.207.38 0 .733-.103a2.77 2.77 0 0 0 1.645-1.287h1.429a4 4 0 0 1-.576 1.072q-.375.49-.875.85-.494.356-1.1.555-.598.2-1.256.2"/></svg>