<svg xmlns="http://www.w3.org/2000/svg" fill="none" overflow="visible" preserveAspectRatio="none" style="display:block" viewBox="0 0 60.899 16.13"><path fill="var(--fill-0, #ebebeb)" d="M14.728 12.059a11.23 11.23 0 0 0-3.924-5.844 11.2 11.2 0 0 0 2.011-3.818c.18-.605.365-1.42.431-2.397L0 .013.002 16.03H15.1q.04-.465.04-.94c0-1.05-.145-2.067-.413-3.031zm-10.774 0V4.237h3.23l-.085.082c-.39.382-.825.719-1.294 1.001v4.435c.64-.223 1.252-.505 1.832-.837a7.2 7.2 0 0 1 2.823 3.14zm56.944 1.921q-.01.472-.055.998-.052.573-.135 1.078h-3.992a9 9 0 0 0 .154-.992s.065-.578.065-1.085c0-4.256-2.36-8.132-5.928-9.721v11.798H47.06V0h3.702c5.24 1.123 8.19 6.11 9.154 8.616.111.292.442 1.451.714 2.88.104.546.23 1.205.26 2.052.006.18.007.33.007.432M29.32.001a6.6 6.6 0 0 0-.765 1.006c-.124.2-.31.503-.477.932-.173.444-.236.79-.296 1.122a7.3 7.3 0 0 0-.108 1.773c.01.157.024.285.035.372h-2.892c.05-.442.105-.85.163-1.302h-3.602v12.127H17.4V1.601h.002V0h8.907zM35.455 0a7.22 7.22 0 0 0 4.653 6.08V.012h3.959v11.66l.028-.014v3.72l-.252.088a12 12 0 0 1-1.29.374 11.5 11.5 0 0 1-2.662.29c-.044 0-.098 0-.152-.004a11.4 11.4 0 0 1-3.51-.632h-.002l-.001-.001-.26-.094a12 12 0 0 1-1.626-.76l-.11-.062-.03-.017-.008-.005-.002-.001-.088-.053a12 12 0 0 1-2.032-1.531l-.338-.315.376-.268q.54-.384 1.107-.83l.127-.1q.44-.353.836-.698l.244-.212.247.209a8.5 8.5 0 0 0 2.112 1.318l.08.034q.131.055.269.107h.003l.021.008q.143.053.297.104l.065.021.06.019.006.001.006.002.06.02.122.035.063.017h.002l.002.002q.235.066.473.115l.067.014h.001a8 8 0 0 0 1.731.162v-2.491A11.21 11.21 0 0 1 31.452 0z"/></svg>