<svg xmlns="http://www.w3.org/2000/svg" fill="none" overflow="visible" preserveAspectRatio="none" style="display:block" viewBox="0 0 161 34"><path fill="var(--fill-0, white)" d="M42.183 0h1.787v34h-5.858V8.398q-6.064 2.856-10.048 9.554-3.37 6.834-4.306 16.048h-3.545q-.616-8.805-4.306-16.048-4.014-6.698-10.048-9.554V34H0V0h1.787Q13.71 2.415 20.682 14.042 21.443 15.3 22 16.388q.585-1.156 1.289-2.346Q30.26 2.414 42.183 0m28.181 13.6V7.616q-5.302 1.53-9.55 5.984zM53.491 27.2h22.732V34H46.93q0-13.804 8.583-23.902T76.223 0v20.4H55.952a27.2 27.2 0 0 0-2.461 6.8m34.45-6.8V34h-5.86V0h5.86v13.6h17.576V0h5.859v13.6h2.929v6.8h-2.929V34h-5.859V20.4zM161 0v34h-29.294q0-7.31 2.402-13.6h-8.085V34h-5.859V0h5.859v13.6h11.63a39 39 0 0 1 2.636-3.502Q148.872 0 161 0m-16.58 14.892q-4.659 5.474-6.152 12.308h16.873V7.616q-6.005 1.734-10.721 7.276"/></svg>