<svg xmlns="http://www.w3.org/2000/svg" fill="none" overflow="visible" preserveAspectRatio="none" style="display:block" viewBox="0 0 325.102 86.422"><g fill="var(--fill-0, white)" clip-path="url(#a)"><path d="M78.622 64.61a60.17 60.17 0 0 0-20.947-31.312 60 60 0 0 0 10.737-20.455A59.2 59.2 0 0 0 70.716 0C47.146.022 23.576.048 0 .07c0 28.607.011 57.213.011 85.817h80.6c.136-1.656.21-3.337.21-5.032a60.7 60.7 0 0 0-2.202-16.246h.007zm-57.514 0V22.7h17.24q-.22.225-.45.44a37.8 37.8 0 0 1-6.908 5.363v23.762a58.6 58.6 0 0 0 9.779-4.481 38.45 38.45 0 0 1 15.07 16.825zm303.994 10.291a84 84 0 0 1-.296 5.348 83 83 0 0 1-.721 5.777h-21.309a51 51 0 0 0 .819-5.315s.347-3.094.347-5.81c0-22.807-12.598-43.574-31.647-52.09v63.215h-21.061V0h19.762c27.973 6.016 43.724 32.732 48.866 46.166.596 1.56 2.358 7.774 3.81 15.426.556 2.93 1.229 6.46 1.39 10.997.033.969.04 1.769.036 2.316zM156.521.007a35.7 35.7 0 0 0-4.085 5.388c-.662 1.072-1.653 2.694-2.546 4.996-.921 2.378-1.258 4.235-1.579 6.008-.831 4.603-.67 8.141-.578 9.503.055.84.131 1.527.19 1.99h-15.44c.267-2.368.56-4.549.87-6.975h-19.232v64.977H92.888V8.578h.008V0h47.552zM189.273 0c1.39 14.99 11.311 27.498 24.838 32.578V.066h21.134v62.47l.15-.074v19.93l-1.346.474a64 64 0 0 1-3.101 1.005 61 61 0 0 1-12.532 2.35 59 59 0 0 1-5.464.198c-.234 0-.519 0-.812-.015a60.8 60.8 0 0 1-15.553-2.378 20 20 0 0 1-.849-.254 49 49 0 0 1-2.336-.756h-.008l-.007-.007c-.461-.165-.922-.33-1.39-.503-2.475-.921-4.845-2.055-6.582-2.947a68 68 0 0 1-2.685-1.457l-.157-.092-.044-.026q-.005 0-.011-.007l-.471-.279c-4.857-2.903-8.565-6.07-10.847-8.207l-1.803-1.685 2.008-1.435a147 147 0 0 0 5.909-4.448l.677-.54a138 138 0 0 0 4.465-3.736l1.302-1.134 1.317 1.115c3.108 2.64 6.838 5.139 11.274 7.062l.432.184c.468.198.943.385 1.433.572h.019l.109.044c.512.195 1.039.378 1.587.558.132.044.242.077.348.114l.318.1.033.007.029.01.322.103q.325.1.655.191l.332.092h.011l.011.007q1.257.354 2.524.62l.362.074h.007c2.417.492 4.886.785 7.384.855q.921.022 1.854.011V54.887C188.717 49.025 169.503 26.9 167.901 0z"/></g><defs><clipPath id="a"><path fill="#fff" d="M0 0h325.102v86.422H0z"/></clipPath></defs></svg>