<svg xmlns="http://www.w3.org/2000/svg" fill="none" overflow="visible" preserveAspectRatio="none" style="display:block" viewBox="0 0 40.961 20.199"><path fill="var(--fill-0, white)" d="M31.41 20.199q-1.662 0-2.833-1.17-1.17-1.17-1.17-2.834a3.85 3.85 0 0 1 1.17-2.825q1.179-1.178 2.833-1.178 1.55 0 2.707 1.043V9.248h1.305V20.2h-1.305v-1.044A3.9 3.9 0 0 1 31.41 20.2m0-1.297a2.65 2.65 0 0 0 1.902-.79q.373-.374.589-.865.216-.492.216-1.052 0-.55-.216-1.043a2.7 2.7 0 0 0-.59-.858 2.6 2.6 0 0 0-.857-.581 2.6 2.6 0 0 0-1.044-.217q-.559 0-1.05.217-.486.209-.858.581-.366.366-.582.858-.209.492-.209 1.043 0 .56.21 1.052.215.492.58.864.374.366.858.582.492.21 1.051.209m-11.3 1.295V12.19h1.304v.574a2.96 2.96 0 0 1 1.782-.574q.61 0 1.155.23.544.232.955.635.418.402.67.939.255.529.284 1.133l-.008 5.07h-1.304v-5.07a1.7 1.7 0 0 0-.172-.634 1.83 1.83 0 0 0-.932-.872 1.7 1.7 0 0 0-.648-.127q-.35 0-.664.135a1.8 1.8 0 0 0-.544.35q-.239.216-.388.514a1.7 1.7 0 0 0-.164.634h-.022v5.07zm-6.428 0q-1.663 0-2.833-1.17-1.17-1.171-1.171-2.834a3.85 3.85 0 0 1 1.17-2.825q1.178-1.178 2.834-1.178 1.551 0 2.706 1.043v-1.043h1.305v8.007h-1.305v-1.044a3.9 3.9 0 0 1-2.706 1.044m0-1.297a2.65 2.65 0 0 0 1.9-.79q.374-.374.59-.866t.216-1.05q0-.552-.216-1.045a2.7 2.7 0 0 0-.59-.857 2.6 2.6 0 0 0-.857-.581 2.6 2.6 0 0 0-1.043-.217q-.559 0-1.052.217-.484.209-.857.581-.364.366-.582.857-.208.493-.208 1.044 0 .56.208 1.052.217.492.582.864.373.366.857.582.493.21 1.052.209m-8.865 1.298q-1.565 0-2.699-1.044V20.2H.814V9.247h1.304v3.989q1.134-1.044 2.7-1.044.819 0 1.543.32.73.313 1.275.865.55.545.872 1.275.32.723.32 1.543 0 .828-.32 1.559a4.13 4.13 0 0 1-2.14 2.132 3.9 3.9 0 0 1-1.55.313m0-1.297a2.64 2.64 0 0 0 1.902-.79 2.8 2.8 0 0 0 .589-.865q.216-.492.216-1.052 0-.55-.216-1.043a2.7 2.7 0 0 0-.59-.858 2.6 2.6 0 0 0-.857-.581 2.6 2.6 0 0 0-1.044-.217q-.559 0-1.05.217a2.7 2.7 0 0 0-.858.581q-.366.366-.582.858-.209.492-.209 1.043 0 .56.21 1.052.215.492.58.864.374.366.858.582.492.21 1.051.209M40.015 1.767a1.7 1.7 0 0 0-1.186-.462q-.35 0-.663.134a1.8 1.8 0 0 0-.545.35q-.238.217-.387.515a1.7 1.7 0 0 0-.164.634l-.023 5.07h-1.305V0h1.305v.574A2.96 2.96 0 0 1 38.83 0q1.238 0 2.117.857.008.008.015.008zm-10.118 6.24q-1.663 0-2.833-1.17t-1.171-2.833a3.85 3.85 0 0 1 1.17-2.826Q28.242 0 29.898 0q.82 0 1.543.32.73.315 1.275.865.552.544.872 1.275a3.76 3.76 0 0 1 .261 2.2h-6.576q.113.44.35.812.247.373.59.65.35.275.775.431a2.65 2.65 0 0 0 1.64.053 2.75 2.75 0 0 0 1.216-.731q.253-.261.425-.567h1.424a4 4 0 0 1-.575 1.081q-.372.493-.872.858a4 4 0 0 1-2.348.76m-2.625-4.652h5.25a2.6 2.6 0 0 0-.366-.805 2.7 2.7 0 0 0-.597-.656 2.7 2.7 0 0 0-.768-.433 2.6 2.6 0 0 0-.894-.156 2.6 2.6 0 0 0-.902.156 2.8 2.8 0 0 0-.776.433 2.6 2.6 0 0 0-.589.648q-.246.373-.358.813m-6.756 4.652L18.139 0h1.357l1.953 6.576L23.409 0h1.358l-2.379 8.007zm-7.499 0q-1.663 0-2.833-1.17t-1.17-2.833a3.85 3.85 0 0 1 1.17-2.826Q11.363 0 13.018 0q.82 0 1.543.32.73.315 1.275.865.552.544.872 1.275.321.723.321 1.544 0 .826-.32 1.558a4.13 4.13 0 0 1-2.14 2.132 3.9 3.9 0 0 1-1.551.313m0-1.297a2.65 2.65 0 0 0 1.901-.79 2.8 2.8 0 0 0 .589-.865q.216-.493.216-1.051 0-.552-.216-1.044a2.7 2.7 0 0 0-.589-.857 2.6 2.6 0 0 0-.857-.582 2.6 2.6 0 0 0-1.044-.216q-.56 0-1.051.216-.486.21-.858.582-.365.365-.581.857-.21.492-.21 1.044 0 .559.21 1.05.216.493.581.866.373.365.858.581.492.21 1.05.21M4.004 8.007q-1.662 0-2.833-1.17T0 4.004a3.85 3.85 0 0 1 1.17-2.826Q2.349 0 4.004 0q.656 0 1.252.209.604.2 1.096.559.5.358.873.857.373.492.574 1.074H6.375a2.6 2.6 0 0 0-.425-.552 2.65 2.65 0 0 0-1.215-.738 2.6 2.6 0 0 0-.731-.104q-.56 0-1.051.216-.485.21-.858.582-.365.365-.581.857-.21.492-.209 1.044 0 .559.209 1.05.216.493.581.866.374.365.858.581.492.21 1.05.21.381 0 .732-.105a2.74 2.74 0 0 0 1.215-.731q.253-.261.425-.567h1.424a4 4 0 0 1-.574 1.081q-.373.493-.873.858a4 4 0 0 1-2.348.76"/></svg>