<svg xmlns="http://www.w3.org/2000/svg" xmlns:xlink="http://www.w3.org/1999/xlink" width="440" height="847" fill="none"><path fill="url(#a)" fill-opacity=".1" d="M0 0h440v847H0z"/><path fill="url(#b)" fill-opacity=".4" d="M0 0h440v847H0z"/><defs><radialGradient id="b" cx="0" cy="0" r="1" gradientTransform="rotate(113.449 249.395 99.587)scale(1184.85 295.801)" gradientUnits="userSpaceOnUse"><stop stop-color="#ff291f"/><stop offset="1"/></radialGradient><pattern id="a" width="1" height="1" patternTransform="scale(204.644 464.166)" patternUnits="userSpaceOnUse" preserveAspectRatio="none" viewBox="0.002 0 511.61 1160.42"><use xlink:href="#c" transform="translate(-511.61)"/><path id="c" fill="#ebebeb" d="M113.329 248.751a21.02 21.02 0 0 0-11.215-6.818 21 21 0 0 0 .332-8.049 21 21 0 0 0-1.183-4.4l-22.169 10.429q6.37 13.568 12.737 27.135l25.279-11.861a21.4 21.4 0 0 0-3.782-6.435zm-18.038 8.464-6.218-13.252 5.407-2.537a13.1 13.1 0 0 1-1.447 2.918l3.525 7.514a20 20 0 0 0 2.402-2.856 13.4 13.4 0 0 1 7.224 3.102zm392.59-3.126a41.63 41.63 0 0 0-22.204-13.5 41.7 41.7 0 0 0 .659-15.933 41.3 41.3 0 0 0-2.342-8.712c-14.629 6.881-29.256 13.764-43.89 20.647 8.403 17.909 16.813 35.814 25.215 53.721l50.048-23.482a43 43 0 0 0-1.349-3.211 42.3 42.3 0 0 0-6.139-9.529l.005-.002zm-35.712 16.756-12.31-26.236 10.704-5.023a7 7 0 0 1-.15.407 26 26 0 0 1-2.714 5.37l6.98 14.876a40 40 0 0 0 4.756-5.655 26.53 26.53 0 0 1 14.3 6.143zM434.25 530.687c-8.033-9.388-18.748-15.766-30.353-18.454a56.9 56.9 0 0 0 .9-21.781 56.4 56.4 0 0 0-3.201-11.908c-19.997 9.405-39.992 18.814-59.996 28.223 11.487 24.481 22.983 48.958 34.468 73.436l68.414-32.1a59 59 0 0 0-1.843-4.389 57.8 57.8 0 0 0-8.392-13.026l.006-.003zm-48.818 22.905-16.828-35.864 14.633-6.866q-.096.281-.205.556a35.5 35.5 0 0 1-3.71 7.341l9.541 20.335a55 55 0 0 0 6.501-7.73c7.141.762 13.978 3.678 19.548 8.396zm33.652-178.472a29 29 0 0 1-.104 1.865 29 29 0 0 1-.254 2.015h-7.5a18 18 0 0 0 .288-1.853s.122-1.079.122-2.027c0-7.953-4.434-15.195-11.139-18.165V379h-7.413v-30h6.956c9.846 2.098 15.39 11.415 17.199 16.099.21.544.831 2.711 1.342 5.38.195 1.022.432 2.253.489 3.835.011.338.014.617.013.808zM259.394 69.98a64 64 0 0 1-1.256 3.913 64 64 0 0 1-1.655 4.149l-15.912-4.146a39 39 0 0 0 1.639-3.787s.858-2.23 1.384-4.246c4.412-16.933-.978-34.802-13.556-44.83L217.81 67.965l-15.727-4.097L218.725 0l14.757 3.845c19.723 9.909 26.317 32.808 27.557 43.782.144 1.274.258 6.23-.138 12.194-.152 2.283-.332 5.035-1.09 8.435a44 44 0 0 1-.421 1.726zM65.52 493.408a103 103 0 0 1-5.619 3.579 102 102 0 0 1-6.364 3.458l-15.66-21.784a63 63 0 0 0 5.97-3.021s3.38-1.892 6.123-3.863c23.035-16.559 34.75-44.515 29.351-70.17L15.478 447.5.001 425.97l86.882-62.454 14.523 20.202c14.48 32.964-.928 68.462-10.716 83.471-1.138 1.741-6.118 8.055-12.78 15.095-2.55 2.694-5.621 5.946-10.084 9.404a74 74 0 0 1-2.313 1.719zm162.845-108.406a12.4 12.4 0 0 0-.889 2.179c-.126.42-.314 1.055-.408 1.911-.098.884-.046 1.541.004 2.168.13 1.628.497 2.809.649 3.261.092.279.179.505.24.656l-5.164 1.354c-.12-.823-.216-1.585-.327-2.432l-6.432 1.687 5.759 21.952-7.101 1.862-6.852-26.12.003-.001-.761-2.898 15.903-4.171zm-118.833-342c.303 2.584.85 4.713 1.344 6.284.361 1.143.914 2.865 2.016 4.944 1.14 2.147 2.267 3.552 3.343 4.893 2.797 3.478 5.442 5.584 6.478 6.374.639.488 1.18.865 1.549 1.113l-9.57 10.971c-1.538-1.675-2.925-3.252-4.478-4.995l-11.92 13.665 46.743 40.778-13.161 15.087-55.621-48.522.004-.005-6.17-5.383 29.475-33.788zm402.078 71.284a19.6 19.6 0 0 0-2.945 2.217c-.507.464-1.27 1.167-2.085 2.242-.842 1.112-1.3 2.038-1.738 2.921-1.135 2.295-1.592 4.18-1.752 4.91-.1.45-.165.822-.205 1.074l-8.019-2.33c.5-1.204.985-2.306 1.518-3.535l-9.989-2.903-9.927 34.166-11.027-3.204 11.813-40.654.004.001 1.31-4.51 24.696 7.176zm-146.779-40.74c2.833 4.393 7.963 6.625 13.046 5.977l-5.194-10.02 6.673-3.458 9.978 19.253.035-.047 3.184 6.143-.349.366a23 23 0 0 1-1.853 1.743 22.2 22.2 0 0 1-4.241 2.804c-.074.038-.164.085-.258.128a22.1 22.1 0 0 1-6.457 2.022h-.006q-.257.037-.519.072c-.929.121-1.858.16-2.549.169a24 24 0 0 1-1.08-.01l-.065-.002-.018-.001h-.004l-.194-.01c-1.997-.1-3.673-.47-4.735-.754l-.838-.225.404-.77c.387-.737.776-1.517 1.156-2.338l.127-.277q.44-.965.813-1.882l.23-.563.594.129c1.402.304 2.979.464 4.687.331l.166-.014q.267-.023.544-.058l.005-.003.042-.004q.288-.037.59-.088l.128-.022.116-.021.012-.003.011-.002.118-.02q.119-.023.237-.049l.12-.026.003-.002h.005q.453-.096.896-.221l.126-.037h.001l.001-.001a15.7 15.7 0 0 0 3.055-1.245l-2.132-4.113c-8.956 2.35-18.556-1.325-23.358-9.354l6.746-3.496zm-51.393 152.066c-14.587 5.532-24.298 19.116-25.574 34.353l32.484-8.914 5.936 21.63-62.417 17.128.116.134-19.913 5.464-.851-1.247a68 68 0 0 1-1.876-2.899 66 66 0 0 1-5.867-12.182 64 64 0 0 1-1.733-5.538c-.065-.239-.146-.531-.213-.835a66 66 0 0 1-1.992-16.57c-.001-.306.002-.612.015-.938.009-.888.049-1.76.099-2.599l-.002-.008.005-.009c.036-.517.071-1.034.112-1.56.225-2.787.693-5.523 1.096-7.545.203-1.014.393-1.859.534-2.453.068-.297.127-.53.168-.694l.048-.186.013-.052q0-.006.004-.014l.147-.559c1.536-5.766 3.66-10.43 5.153-13.351l1.177-2.308 1.998 1.662a157 157 0 0 0 6.104 4.829l.729.544a146 146 0 0 0 4.988 3.546l1.499 1.021-.745 1.654c-1.764 3.905-3.214 8.408-3.89 13.475l-.062.492c-.066.533-.12 1.071-.169 1.624l.005.019-.013.124a39 39 0 0 0-.112 1.778c-.007.146-.009.268-.016.386l-.01.353.002.036-.003.033-.012.357q-.01.36-.007.723l.002.365.003.012-.004.013q-.001 1.382.089 2.753l.028.39.001.004.001.004a47 47 0 0 0 1.219 7.791q.237.949.51 1.901l13.334-3.659c-1.277-27.605 15.432-53.337 41.86-62.352l6.001 21.87zM168.117 526.584c6.753 4.23 15.279 3.991 21.875-.192l-13.653-10.471 6.972-9.091 26.233 20.119.019-.088 8.369 6.419-.245.731a35 35 0 0 1-.601 1.658 33.9 33.9 0 0 1-4.867 8.562c-.078.1-.172.223-.274.344a33.7 33.7 0 0 1-6.516 6.208c-.364.27-.732.523-1.089.762l-.002.003-.006.001q-.33.217-.669.435a34 34 0 0 1-3.41 1.883c-.475.23-.877.413-1.163.539q-.213.095-.334.146l-.09.038-.026.011-.006.002-.273.113a35 35 0 0 1-7.025 2.023l-1.302.233.06-1.326c.056-1.268.088-2.595.081-3.975l-.003-.465a75 75 0 0 0-.096-3.124l-.047-.925.903-.207a24.6 24.6 0 0 0 6.685-2.575l.219-.127c.238-.137.473-.282.714-.432l.006-.008.054-.033q.375-.236.758-.503c.062-.043.112-.079.163-.113l.146-.105.014-.012.014-.009.15-.105q.15-.108.296-.22l.148-.114.004-.004.007-.003q.563-.426 1.092-.885l.151-.133.001-.001.001-.002a24 24 0 0 0 3.411-3.694l-5.604-4.298c-10.841 9.038-26.471 10.178-38.296 2.203l7.05-9.191z"/><use xlink:href="#c" transform="translate(-255.805 580.208)"/><use xlink:href="#c" transform="translate(255.805 580.208)"/></pattern></defs></svg>