<svg xmlns="http://www.w3.org/2000/svg" fill="none" overflow="visible" preserveAspectRatio="none" style="display:block" viewBox="0 0 140.327 37.303"><g fill="var(--fill-0, white)" clip-path="url(#a)"><path d="M33.937 27.888a25.97 25.97 0 0 0-9.042-13.515 25.9 25.9 0 0 0 4.634-8.83c.416-1.399.842-3.282.995-5.543L0 .03c0 12.348.005 24.696.005 37.042h34.79q.09-1.073.09-2.172c0-2.43-.331-4.781-.95-7.012h.003zm-24.826 0V9.798h7.441a6 6 0 0 1-.194.19c-.9.883-1.902 1.663-2.982 2.316V22.56a25.3 25.3 0 0 0 4.221-1.934 16.6 16.6 0 0 1 6.505 7.262zm131.216 4.442a35 35 0 0 1-.439 4.802h-9.198a22 22 0 0 0 .354-2.294s.15-1.335.15-2.508c0-9.844-5.438-18.808-13.661-22.484v27.286h-9.09V0h8.53c12.074 2.597 18.873 14.129 21.092 19.927.258.673 1.018 3.356 1.645 6.659.24 1.264.53 2.788.6 4.746.014.418.017.764.016 1zM67.56.003c-.8.872-1.37 1.69-1.763 2.326A12.5 12.5 0 0 0 64.7 4.485c-.398 1.027-.543 1.828-.682 2.594a17 17 0 0 0-.25 4.101c.024.363.057.66.083.859h-6.665c.115-1.022.242-1.963.376-3.01H49.26v28.046h-9.165V3.702h.004V0h20.525zM81.698 0c.6 6.47 4.882 11.87 10.721 14.062V.03h9.122v26.964l.065-.032v8.603l-.581.204a28 28 0 0 1-2.97.865 26.3 26.3 0 0 1-6.136.669c-.101 0-.224 0-.35-.007a26.3 26.3 0 0 1-7.08-1.135 21 21 0 0 1-1.009-.327h-.003l-.003-.003q-.298-.105-.6-.217a27 27 0 0 1-2.841-1.272 29 29 0 0 1-1.16-.63l-.067-.039-.019-.01q-.002 0-.005-.004l-.203-.12a27.8 27.8 0 0 1-4.682-3.543l-.778-.727.866-.62a64 64 0 0 0 2.551-1.92l.292-.233a60 60 0 0 0 1.927-1.612l.563-.49.568.482a19.5 19.5 0 0 0 4.866 3.048l.187.08q.302.127.618.246h.008l.048.02q.33.125.685.24c.056.02.104.033.15.05l.137.042.014.003.013.005.139.044q.14.044.282.083l.144.04h.005l.004.002q.543.153 1.09.268l.156.032h.003a18.6 18.6 0 0 0 3.987.374v-5.76C81.458 21.161 73.164 11.611 72.473 0z"/></g><defs><clipPath id="a"><path fill="#fff" d="M0 0h140.327v37.303H0z"/></clipPath></defs></svg>