<svg xmlns="http://www.w3.org/2000/svg" width="440" height="492" fill="none" preserveAspectRatio="none"><path fill="#111" d="M347.211 135.484c21.844 2.188 42.041 11.368 59.055 25.685 4.741 3.984 9.236 8.241 13.445 12.831h83.146a295 295 0 0 0-2.326-5.993c-11.168-28.016-27.305-52.607-47.019-72.12C424.423 67.084 387.517 49.343 347.211 48zm0 129.997c21.844 2.188 42.041 11.369 59.055 25.687 4.741 3.984 9.236 8.242 13.445 12.832h83.146a298 298 0 0 0-2.326-5.994c-11.168-28.018-27.305-52.612-47.019-72.127-29.089-28.792-66.005-46.547-106.301-47.879v87.492z"/></svg>