<svg xmlns="http://www.w3.org/2000/svg" width="440" height="492" fill="none" preserveAspectRatio="none"><path fill="#111" d="M176.449 269H179v117.316c-28.121 1.41-54.86 9.535-79.205 23.134-26.018 14.536-49.306 35.35-68.589 60.873A298 298 0 0 1 42.53 506h-89.365c-9.772-17.161-21.922-32.121-35.812-44.164-20.553-17.793-44.959-29.204-71.352-31.933v-108.76c48.679 1.667 93.28 23.732 128.41 59.52 35.976-40.157 78.524-71.43 125.385-90.974 24.484-10.223 50.15-17.258 76.654-20.689M360-58a113.3 113.3 0 0 0-44.009 8.906c-13.952 5.88-26.63 14.498-37.308 25.363S259.533.03 253.754 14.226A118.8 118.8 0 0 0 245 59c0 15.365 2.975 30.579 8.754 44.774s14.25 27.093 24.929 37.957 23.356 19.483 37.308 25.363A113.3 113.3 0 0 0 360 176z"/><path fill="#111" d="M440-58a113.3 113.3 0 0 0-44.009 8.906c-13.952 5.88-26.63 14.498-37.308 25.363S339.533.03 333.754 14.226A118.8 118.8 0 0 0 325 59c0 15.365 2.975 30.579 8.754 44.774s14.25 27.093 24.929 37.957 23.356 19.483 37.308 25.363A113.3 113.3 0 0 0 440 176z"/></svg>