<svg xmlns="http://www.w3.org/2000/svg" width="1320" height="492" fill="none" preserveAspectRatio="xMidYMid slice"><path fill="#ff3135" d="M0 0h1320v492H0z"/><path fill="#111" d="M257 491.5a35.499 35.499 0 0 0-68.298-13.585A35.5 35.5 0 0 0 186 491.5zm91-356.016c21.893 2.188 42.137 11.368 59.189 25.685 4.752 3.984 9.257 8.241 13.476 12.831H504a290 290 0 0 0-2.332-5.993c-11.193-28.016-27.366-52.607-47.126-72.12C425.387 67.084 388.398 49.343 348 48zm0 129.997c21.893 2.188 42.137 11.369 59.189 25.687 4.752 3.984 9.257 8.242 13.476 12.832H504a292 292 0 0 0-2.332-5.994c-11.193-28.018-27.366-52.612-47.126-72.127C425.387 197.087 388.388 179.332 348 178v87.492zM1062.45 269h2.55v117.316c-28.12 1.41-54.86 9.535-79.206 23.134-26.017 14.536-49.305 35.35-68.588 60.873A298 298 0 0 1 928.529 506h-89.365c-9.772-17.161-21.923-32.121-35.812-44.164-20.553-17.793-44.959-29.204-71.352-31.933v-108.76c48.679 1.667 93.28 23.732 128.41 59.52 35.975-40.157 78.523-71.43 125.384-90.974 24.486-10.223 50.146-17.258 76.656-20.689M1240-58c-15.1 0-30.06 3.026-44.01 8.906s-26.63 14.498-37.31 25.363-19.15 23.762-24.93 37.957A118.8 118.8 0 0 0 1125 59c0 15.365 2.97 30.579 8.75 44.774s14.25 27.093 24.93 37.957 23.36 19.483 37.31 25.363A113.3 113.3 0 0 0 1240 176z"/><path fill="#111" d="M1320-58c-15.1 0-30.06 3.026-44.01 8.906s-26.63 14.498-37.31 25.363-19.15 23.762-24.93 37.957A118.8 118.8 0 0 0 1205 59c0 15.365 2.97 30.579 8.75 44.774s14.25 27.093 24.93 37.957 23.36 19.483 37.31 25.363A113.3 113.3 0 0 0 1320 176z"/></svg>