<svg xmlns="http://www.w3.org/2000/svg" width="440" height="492" fill="none" preserveAspectRatio="none"><path fill="#111" d="M-91.992 135.484c21.651 2.188 41.67 11.368 58.534 25.685 4.7 3.984 9.155 8.241 13.327 12.831h82.413a296 296 0 0 0-2.306-5.993c-11.07-28.016-27.064-52.607-46.604-72.12C-15.461 67.084-52.041 49.343-91.992 48zm0 129.997c21.651 2.188 41.67 11.369 58.534 25.687 4.7 3.984 9.155 8.242 13.327 12.832h82.413a298 298 0 0 0-2.306-5.994c-11.07-28.018-27.064-52.612-46.604-72.127C-15.461 197.087-52.051 179.332-91.992 178v87.492zM614.552 269h2.522v117.316c-27.81 1.41-54.253 9.535-78.329 23.134-25.73 14.536-48.76 35.35-67.83 60.873A301 301 0 0 1 482.112 506h-88.375c-9.665-17.161-21.681-32.121-35.417-44.164-20.325-17.793-44.462-29.204-70.562-31.933v-108.76c48.14 1.667 92.248 23.732 126.99 59.52 35.577-40.157 77.654-71.43 123.997-90.974 24.214-10.223 49.595-17.258 75.807-20.689"/></svg>