<svg xmlns="http://www.w3.org/2000/svg" width="440" height="492" fill="none" preserveAspectRatio="xMidYMid slice" viewBox="0 1859.58 440 492"><path fill="#111" d="M28 2338.22c14.175 1.23 27.28 6.39 38.321 14.44 3.077 2.24 5.994 4.63 8.725 7.21H129c-.48-1.11-.991-2.23-1.51-3.36-7.247-15.76-17.718-29.58-30.51-40.55-18.877-16.19-42.825-26.17-68.98-26.92zm0 63.62c14.175 1.23 27.28 6.4 38.321 14.45 3.077 2.24 5.994 4.63 8.725 7.21H129c-.48-1.12-.991-2.24-1.51-3.37-7.247-15.75-17.718-29.58-30.51-40.55-18.877-16.19-42.831-26.17-68.98-26.92v49.19z"/><ellipse cx="389.391" cy="2024.91" fill="#111" rx="31.993" ry="31.39" transform="rotate(90 389.391 2024.91)"/><path fill="#111" d="M274.208 2087.14c-1.545 19.18-8.03 36.91-18.144 51.85-2.814 4.16-5.822 8.11-9.064 11.81v73.01c1.403-.65 2.814-1.35 4.234-2.05 19.791-9.8 37.162-23.97 50.947-41.28 20.337-25.55 32.878-57.96 33.819-93.34h-61.8zm84 0c-1.545 19.18-8.03 36.91-18.144 51.85-2.814 4.16-5.822 8.11-9.064 11.81v73.01c1.403-.65 2.814-1.35 4.234-2.05 19.791-9.8 37.162-23.97 50.947-41.28 20.337-25.55 32.878-57.96 33.819-93.34h-61.8z"/></svg>